<?xml version="1.0" encoding="UTF-8" standalone="no"?>
<!-- Created with Inkscape (http://www.inkscape.org/) -->

<svg
   width="274.39542mm"
   height="274.98239mm"
   viewBox="0 0 274.39542 274.98239"
   version="1.1"
   id="svg1"
   inkscape:version="1.4 (e7c3feb, 2024-10-09)"
   sodipodi:docname="logo_blanco.svg"
   xmlns:inkscape="http://www.inkscape.org/namespaces/inkscape"
   xmlns:sodipodi="http://sodipodi.sourceforge.net/DTD/sodipodi-0.dtd"
   xmlns="http://www.w3.org/2000/svg"
   xmlns:svg="http://www.w3.org/2000/svg">
  <sodipodi:namedview
     id="namedview1"
     pagecolor="#ffffff"
     bordercolor="#000000"
     borderopacity="0.25"
     inkscape:showpageshadow="2"
     inkscape:pageopacity="0.0"
     inkscape:pagecheckerboard="0"
     inkscape:deskcolor="#d1d1d1"
     inkscape:document-units="mm"
     inkscape:zoom="0.49175084"
     inkscape:cx="420.94488"
     inkscape:cy="589.72954"
     inkscape:window-width="1189"
     inkscape:window-height="787"
     inkscape:window-x="50"
     inkscape:window-y="97"
     inkscape:window-maximized="1"
     inkscape:current-layer="layer1" />
  <defs
     id="defs1" />
  <g
     inkscape:label="Capa 1"
     inkscape:groupmode="layer"
     id="layer1"
     transform="translate(6.3499998,93.397924)">
    <path
       id="path3"
       d="m 189.51327,-14.560566 c -15.00399,-15.004698 -35.74274,-24.291573 -58.6493,-24.291573 -22.90621,0 -43.647078,9.286875 -58.651773,24.291573 -15.005402,15.00504714 -24.291925,35.745912 -24.291925,58.652478 0,22.906212 9.286523,43.643901 24.291925,58.648948 15.004695,15.00505 35.745563,24.29157 58.651773,24.29157 22.90374,0 43.64531,-9.28652 58.6493,-24.29157 15.00505,-15.005047 24.29157,-35.745559 24.29157,-58.648948 0,-22.906566 -9.28652,-43.64743086 -24.29157,-58.652478 z m -58.6493,-29.625218 c 24.37059,0 46.44496,9.884478 62.41767,25.857197 15.97272,15.9727182 25.85826,38.050258 25.85826,62.420499 0,24.370239 -9.88554,46.444603 -25.85826,62.417678 -15.97271,15.97272 -38.04708,25.85718 -62.41767,25.85718 -24.36918,0 -46.447428,-9.88446 -62.420147,-25.85718 C 52.472163,90.536515 42.586626,68.462151 42.586626,44.091912 c 0,-24.370241 9.885537,-46.4477808 25.857197,-62.420499 15.972719,-15.972719 38.050967,-25.857197 62.420147,-25.857197 v 0"
       style="fill:#fafafa;fill-opacity:1;fill-rule:evenodd;stroke:none;stroke-width:0.0352777" />
    <path
       id="path4"
       d="M 51.041297,14.847694 C 48.739774,14.221512 46.708128,13.368496 44.935772,12.340502 42.976797,11.201029 41.301455,9.8333106 39.888935,8.2976689 V 8.2761583 C 37.714764,5.9026712 36.169245,3.1598231 35.159595,0.18731673 34.122077,-2.8673851 33.635947,-6.214187 33.578445,-9.6654119 33.493072,-15.21637 34.497785,-19.450762 35.531777,-23.82556 v -0.02151 c 1.375126,-5.812367 2.827512,-11.938352 1.060801,-21.599525 l -1.381476,-7.566729 7.551205,1.376537 c 9.678813,1.759657 15.808679,0.317148 21.621046,-1.052335 v -0.0067 c 4.369152,-1.03364 8.602133,-2.034823 14.17602,-1.950156 3.456517,0.05433 6.80085,0.54751 9.848498,1.58115 2.993671,1.016351 5.748512,2.561873 8.113184,4.730398 1.636535,1.502478 3.079043,3.307995 4.258735,5.433835 1.09396,1.974495 1.96532,4.181827 2.54882,6.634691 l -10.378372,2.460625 c -0.369358,-1.545166 -0.868188,-2.85115 -1.467205,-3.930298 -0.597958,-1.076325 -1.336675,-1.999543 -2.170287,-2.767189 -1.203679,-1.103842 -2.676173,-1.914525 -4.321529,-2.473677 -2.008717,-0.683332 -4.248854,-1.007182 -6.580362,-1.043165 h -0.02117 c -4.084815,-0.0635 -7.756173,0.804688 -11.545358,1.702506 h -0.02045 c -5.3594,1.26365 -10.943873,2.584802 -18.860558,2.043994 0.540453,7.925858 -0.780699,13.519856 -2.053167,18.887723 h -0.0067 c -0.894995,3.785658 -1.762829,7.454193 -1.698977,11.551356 0.03634,2.3431474 0.359482,4.5935185 1.04281,6.6047037 0.563034,1.6598186 1.373717,3.13266668 2.464507,4.3271731 l 0.0095,-0.00953 c 0.710493,0.7747 1.559983,1.46685 2.549173,2.0411704 1.039635,0.6050148 2.22885,1.1038417 3.565525,1.46685 L 51.041315,14.84772"
       style="fill:#fafafa;fill-opacity:1;fill-rule:evenodd;stroke:none;stroke-width:0.0352777" />
    <path
       id="path5"
       d="m 54.129162,80.110167 c -2.24155,1.436865 -4.493684,2.464859 -6.704542,3.123848 l 0.0028,0.0056 c -2.40665,0.716492 -4.78931,0.992013 -7.123993,0.892175 -3.205338,-0.138642 -6.2357,-0.994833 -9.062154,-2.385835 -2.919238,-1.43651 -5.625396,-3.452635 -8.083905,-5.830007 l -0.02082,-0.02117 C 19.220037,72.099283 16.909695,68.353134 14.521037,64.482458 11.397189,59.417274 8.101539,54.077279 -0.02116657,48.464583 L -6.3499998,44.091904 -0.02116657,39.712873 C 8.101539,34.097708 11.397189,28.760888 14.521037,23.698527 c 2.385835,-3.868208 4.699,-7.614004 8.61554,-11.409539 2.467678,-2.3918335 5.182658,-4.4146603 8.09766,-5.8483501 h 0.02117 c 2.839509,-1.3966481 5.867049,-2.2500166 9.048044,-2.3886583 h 0.02117 c 2.319162,-0.097367 4.702175,0.1813269 7.102826,0.8946435 2.198513,0.6533462 4.442532,1.6841629 6.701722,3.13055 l -5.75169,8.9563229 c -1.370542,-0.877006 -2.71004,-1.496483 -3.992385,-1.87819 -1.256597,-0.371475 -2.476148,-0.519993 -3.622323,-0.477308 -1.647471,0.06985 -3.268837,0.538692 -4.81965,1.297871 l 0.0028,0.0085 c -1.881011,0.925335 -3.695348,2.28882 -5.389385,3.931354 -3.020484,2.926646 -4.976284,6.096 -6.993822,9.365191 -2.900185,4.696177 -5.927018,9.594498 -11.889668,14.805025 5.96265,5.209823 8.989483,10.112023 11.889668,14.813843 2.01154,3.263548 3.964517,6.429023 6.973713,9.347552 1.714146,1.656998 3.534479,3.029657 5.415492,3.954992 1.556808,0.768704 3.169002,1.237546 4.790368,1.303515 h 0.02045 c 1.146175,0.04833 2.358673,-0.09984 3.622323,-0.47484 h 0.02151 c 1.258359,-0.371475 2.58586,-0.99201 3.970867,-1.878187 l 5.75169,8.957378"
       style="fill:#fafafa;fill-opacity:1;fill-rule:evenodd;stroke:none;stroke-width:0.0352777" />
    <path
       id="path6"
       d="m 95.004108,-32.659124 c -1.476727,-2.25284 -2.540703,-4.541663 -3.236383,-6.830483 -0.752475,-2.477207 -1.042458,-4.896202 -0.946502,-7.233709 v -0.02117 c 0.138994,-3.19264 0.99201,-6.228998 2.388659,-9.065332 l 0.0099,0.0028 c 1.450975,-2.942166 3.465338,-5.652558 5.838825,-8.104364 3.798353,-3.915834 7.542033,-6.228996 11.412363,-8.614833 5.068,-3.127727 10.41153,-6.423025 16.0214,-14.542911 l 4.3748,-6.328833 4.37585,6.328833 c 5.6127,8.116711 10.94952,11.415184 16.01188,14.542911 3.87068,2.389012 7.61471,4.698999 11.40918,8.614833 2.39184,2.467681 4.41467,5.183364 5.84871,8.098721 v 0.02011 c 1.39664,2.840212 2.24966,5.867046 2.38866,9.048044 v 0.02117 c 0.097,2.337507 -0.19298,4.756502 -0.94651,7.233709 -0.69497,2.28882 -1.75965,4.577643 -3.23532,6.830483 l -8.92069,-5.83565 c 0.9525,-1.455208 1.60866,-2.818696 1.99002,-4.079875 0.38346,-1.266825 0.53481,-2.508956 0.48648,-3.710165 -0.0702,-1.647825 -0.53764,-3.269191 -1.29717,-4.820002 l -0.01,0.0028 c -0.92534,-1.881012 -2.28918,-3.695348 -3.9303,-5.388329 -2.9277,-3.020835 -6.09424,-4.977694 -9.36554,-6.994525 -4.69865,-2.902654 -9.59238,-5.930193 -14.80185,-11.890375 -5.20771,5.963005 -10.11273,8.987721 -14.81773,11.890375 -3.27236,2.016831 -6.43854,3.970867 -9.36801,6.994525 -1.65418,1.708504 -3.02119,3.516842 -3.93136,5.369631 v 0.02188 c -0.76799,1.557512 -1.23684,3.177821 -1.30669,4.814004 -0.0487,1.201208 0.10337,2.44334 0.48754,3.710165 0.3803,1.261179 1.03682,2.624666 1.98967,4.079875 l -8.920338,5.83565"
       style="fill:#fafafa;fill-opacity:1;fill-rule:evenodd;stroke:none;stroke-width:0.0352777" />
    <path
       id="path7"
       d="m 103.92762,126.67542 c -0.9532,1.45486 -1.60937,2.82187 -1.99284,4.08552 -0.38417,1.264 -0.53622,2.50719 -0.48754,3.70734 0.0699,1.64817 0.53869,3.26919 1.29787,4.82036 l 0.009,-0.003 c 0.92499,1.88135 2.28918,3.6957 3.93136,5.38832 2.92947,3.02506 6.09565,4.97768 9.36801,6.99524 4.705,2.90301 9.61002,5.92666 14.81773,11.88966 5.20947,-5.95982 10.1032,-8.98665 14.80185,-11.88966 3.2713,-2.01756 6.43784,-3.97299 9.36554,-6.99524 1.65382,-1.70815 3.02048,-3.51684 3.9303,-5.36964 v -0.0212 c 0.76905,-1.55715 1.23648,-3.17817 1.30669,-4.8147 0.0483,-1.20015 -0.10302,-2.44334 -0.48648,-3.70734 -0.38453,-1.26365 -1.0407,-2.63066 -1.99285,-4.08552 l 8.9207,-5.836 c 1.47249,2.25037 2.54317,4.54237 3.23814,6.83789 0.75353,2.4705 1.04352,4.89198 0.94651,7.22946 v 0.0212 c -0.139,3.19371 -0.99202,6.22901 -2.38866,9.06568 l -0.009,-0.003 c -1.45204,2.9418 -3.46499,5.65219 -5.83953,8.10401 -3.79166,3.91583 -7.53851,6.22617 -11.40919,8.61589 -5.06553,3.12666 -10.39918,6.42514 -16.01188,14.54184 l -4.37585,6.33201 -4.3748,-6.33201 c -5.60987,-8.11988 -10.9534,-11.41518 -16.0214,-14.54184 -3.87032,-2.38583 -7.614,-4.70006 -11.412363,-8.61589 -2.394653,-2.47015 -4.41466,-5.18232 -5.848701,-8.09731 v -0.0214 c -1.396648,-2.83917 -2.249665,-5.86672 -2.388659,-9.04807 v -0.0212 c -0.09596,-2.33749 0.194027,-4.75896 0.946502,-7.22947 0.69568,-2.29552 1.766359,-4.58752 3.238855,-6.83789 l 8.921046,5.83601"
       style="fill:#fafafa;fill-opacity:1;fill-rule:evenodd;stroke:none;stroke-width:0.0352777" />
    <path
       id="path8"
       d="m 54.007805,84.144534 c -1.412523,0.364773 -2.630665,0.861131 -3.658658,1.451329 -1.007885,0.580319 -1.884185,1.290813 -2.627842,2.101496 -1.10349,1.203679 -1.914173,2.676173 -2.474031,4.321529 -0.683329,2.007304 -1.003652,4.248502 -1.039635,6.579304 v 0.02151 c -0.06385,4.099988 0.800806,7.768168 1.695801,11.554888 h 0.0067 c 1.269646,5.36716 2.5908,10.96115 2.049992,18.88701 7.910335,-0.54081 13.50151,0.77717 18.859852,2.04118 h 0.02117 c 3.792361,0.89781 7.463719,1.76284 11.548534,1.69968 h 0.02117 c 2.331509,-0.036 4.571646,-0.35737 6.580362,-1.04069 1.642534,-0.55598 3.11785,-1.37231 4.32153,-2.47615 h 0.02045 c 0.841375,-0.768 1.596673,-1.74167 2.232377,-2.92453 0.632179,-1.17581 1.139473,-2.57351 1.487313,-4.19629 l 10.42035,2.20733 c -0.56198,2.63913 -1.42981,4.97946 -2.5333,7.03368 -1.188155,2.21017 -2.688872,4.10564 -4.427713,5.70267 l 0.0088,0.009 c -2.361496,2.16818 -5.116337,3.71652 -8.113183,4.73287 -3.047648,1.03399 -6.391981,1.52434 -9.848498,1.57832 -5.569653,0.0847 -9.806868,-0.91335 -14.179901,-1.94697 v -0.007 c -5.811661,-1.36948 -11.941175,-2.81199 -21.614694,-1.04915 l -7.544858,1.37935 1.37654,-7.54803 c 1.762829,-9.67035 0.314677,-15.80304 -1.064684,-21.62141 v -0.0205 c -1.033991,-4.3755 -2.035881,-8.61272 -1.950156,-14.164382 0.05433,-3.456514 0.543277,-6.800496 1.577975,-9.849554 1.016706,-2.996142 2.560815,-5.748515 4.72934,-8.112831 1.427691,-1.553986 3.145364,-2.939344 5.167839,-4.103159 1.8542,-1.064683 3.946173,-1.92687 6.284383,-2.534354 l 2.666648,10.294054"
       style="fill:#fafafa;fill-opacity:1;fill-rule:evenodd;stroke:none;stroke-width:0.0352777" />
    <path
       id="path9"
       d="m 207.88735,4.5903273 c 1.29716,-0.3541898 2.47685,-0.8533712 3.52601,-1.4664981 1.01318,-0.5930185 1.86232,-1.279525 2.5587,-2.0355269 1.10349,-1.20367949 1.91417,-2.676173 2.47333,-4.3204711 0.68333,-2.0083621 1.00365,-4.2488538 1.03928,-6.5803621 v -0.021511 c 0.0646,-4.0999831 -0.80045,-7.7681661 -1.6958,-11.5541791 h -0.006 c -1.27035,-5.367866 -2.5915,-10.965037 -2.05105,-18.88772 -7.91033,0.540808 -13.50116,-0.777523 -18.85985,-2.041173 h -0.0212 c -3.79236,-0.897819 -7.46372,-1.762832 -11.54818,-1.700035 h -0.0215 c -2.3315,0.03704 -4.57164,0.357362 -6.58001,1.040693 -1.64182,0.556332 -3.11785,1.372658 -4.32152,2.476148 h -0.0208 c -0.8075,0.737659 -1.53634,1.65735 -2.147,2.757662 -0.62336,1.122188 -1.13065,2.42923 -1.48802,3.925713 l -10.33603,-2.461683 c 0.59619,-2.492023 1.4552,-4.699355 2.52871,-6.629048 1.16663,-2.094442 2.60914,-3.897135 4.26332,-5.415137 l -0.009,-0.0088 c 2.36184,-2.168525 5.11633,-3.716866 8.11318,-4.733218 3.048,-1.03364 6.39304,-1.524 9.8485,-1.578327 5.57071,-0.08431 9.80722,0.913693 14.18025,1.947333 v 0.0067 c 5.81131,1.369483 11.94118,2.811992 21.61434,1.049515 l 7.54803,-1.37654 -1.3783,7.54521 c -1.76389,9.669992 -0.31504,15.802681 1.06397,21.621043 v 0.02151 c 1.03437,4.374795 2.03518,8.61201 1.94982,14.1629681 -0.0543,3.4572204 -0.54329,6.8019082 -1.57834,9.84990819 -1.01529,2.99649351 -2.5608,5.74816011 -4.72898,8.11318321 -1.42417,1.5508102 -3.09104,2.9150025 -5.01368,4.0371875 -1.75154,1.021998 -3.78283,1.871133 -6.10905,2.506133 L 207.88737,4.5903273"
       style="fill:#fafafa;fill-opacity:1;fill-rule:evenodd;stroke:none;stroke-width:0.0352777" />
    <path
       id="path10"
       d="m 213.31872,71.171132 c 1.36383,0.871008 2.69663,1.485194 3.97862,1.86549 1.26119,0.372179 2.47722,0.517525 3.63292,0.469193 h 0.0212 c 1.61994,-0.06597 3.23215,-0.53481 4.79248,-1.306689 h 0.0212 c 1.85385,-0.909461 3.65831,-2.276121 5.36786,-3.931002 3.02366,-2.929819 4.97946,-6.099175 6.99948,-9.371187 2.90052,-4.704998 5.92417,-9.604023 11.8872,-14.811023 -5.96303,-5.203825 -8.98668,-10.10285 -11.8872,-14.80185 -2.02002,-3.269192 -3.97582,-6.435725 -6.99948,-9.365543 -1.70955,-1.653823 -3.51401,-3.020484 -5.36786,-3.931002 h -0.0212 c -1.56033,-0.770821 -3.17254,-1.239663 -4.79248,-1.30669 h -0.0212 c -1.1557,-0.04868 -2.37173,0.09702 -3.62974,0.466019 -1.28129,0.380296 -2.61514,0.994833 -3.97863,1.865489 l -5.71006,-8.9563226 c 2.25601,-1.4396852 4.49721,-2.4676788 6.68937,-3.11785 2.40418,-0.708025 4.77766,-0.9835435 7.08766,-0.8837083 3.20535,0.1400545 6.23887,0.9920129 9.0664,2.3890128 l -0.003,0.00987 c 2.93933,1.4481519 5.6515,3.4649833 8.10048,5.8384731 3.91655,3.795535 6.22969,7.538508 8.62153,11.409891 3.12385,5.061654 6.42339,10.398829 14.53903,16.008702 l 6.33201,4.375502 -6.33201,4.376208 c -8.11564,5.60846 -11.41518,10.949517 -14.53903,16.017169 -2.38866,3.871031 -4.70498,7.62 -8.62153,11.415535 -2.44898,2.374196 -5.16115,4.390321 -8.10048,5.839531 l 0.003,0.0085 c -2.82753,1.397 -5.86105,2.250368 -9.0664,2.38901 -2.31598,0.09984 -4.68348,-0.178504 -7.09083,-0.886177 -2.19287,-0.649465 -4.43301,-1.678517 -6.68902,-3.11785 l 5.70971,-8.956675"
       style="fill:#fafafa;fill-opacity:1;fill-rule:evenodd;stroke:none;stroke-width:0.0352777" />
    <path
       id="path11"
       d="m 210.38219,73.860005 c 2.33186,0.610659 4.42066,1.472494 6.26922,2.53365 1.98296,1.143352 3.701,2.531179 5.14313,4.104217 l 0.009,-0.0099 c 2.16818,2.364316 3.7137,5.11669 4.72898,8.112831 1.03505,3.049058 1.524,6.39304 1.57835,9.849554 0.0854,5.551663 -0.91546,9.788883 -1.94982,14.164383 v 0.0205 c -1.37901,5.81837 -2.82787,11.95106 -1.06397,21.62139 l 1.37829,7.54804 -7.54802,-1.37936 c -9.67317,-1.76283 -15.80303,-0.32033 -21.61434,1.04916 v 0.007 c -4.37304,1.03362 -8.60954,2.03163 -14.18026,1.94696 -3.45545,-0.054 -6.80049,-0.54432 -9.84849,-1.57832 -2.99685,-1.01634 -5.75134,-2.56468 -8.11319,-4.73286 -1.7152,-1.57269 -3.21204,-3.46533 -4.41818,-5.70865 -1.10385,-2.05034 -1.96604,-4.38785 -2.53401,-7.02486 l 10.42035,-2.20733 c 0.34784,1.62101 0.85619,3.01202 1.48837,4.18818 0.6223,1.15817 1.38783,2.12584 2.25214,2.921 1.20614,1.10666 2.6797,1.92017 4.32152,2.47615 2.00837,0.68331 4.2485,1.0047 6.58001,1.04068 h 0.0215 c 4.08446,0.0632 7.75582,-0.80186 11.54818,-1.69967 h 0.0212 c 5.35869,-1.26401 10.94951,-2.58199 18.85985,-2.04118 -0.54045,-7.92586 0.7807,-13.51985 2.05105,-18.88701 h 0.006 c 0.89535,-3.78672 1.76036,-7.4549 1.6958,-11.554888 v -0.02151 c -0.0356,-2.330802 -0.35595,-4.572 -1.03929,-6.579304 -0.55915,-1.645356 -1.36983,-3.11785 -2.47332,-4.321529 v -0.02117 c -0.71438,-0.780695 -1.58503,-1.478492 -2.61303,-2.07151 -1.02799,-0.592315 -2.24049,-1.085498 -3.64384,-1.451327 l 2.667,-10.29335"
       style="fill:#fafafa;fill-opacity:1;fill-rule:evenodd;stroke:none;stroke-width:0.0352777" />
    <path
       id="path12"
       d="m 174.51845,0.43495614 -0.006,0.006694 C 163.34456,-10.726235 147.90771,-17.639268 130.86149,-17.639268 c -17.0494,0 -32.483426,6.91021 -43.654134,18.07421356 l 0.0067,0.006694 C 76.046165,11.608818 69.13419,27.045668 69.13419,44.091891 c 0,17.0434 6.911975,32.480247 18.07986,43.648135 l -0.0067,0.006 c 11.170708,11.163651 26.60473,18.074214 43.65413,18.074214 17.04622,0 32.48307,-6.913383 43.65096,-18.08021 l 0.006,0.006 c 11.16365,-11.170708 18.07387,-26.604735 18.07387,-43.65413 0,-17.049398 -6.91022,-32.486248 -18.07387,-43.65695586 z M 130.8615,-22.973612 c 18.51872,0 35.29259,7.508523 47.42497,19.6412561 v 0.011642 c 12.13168,12.1355537 19.63985,28.9034349 19.63985,47.4126259 0,18.510247 -7.50817,35.273895 -19.63985,47.409451 v 0.01164 c -12.13238,12.132737 -28.90625,19.640907 -47.42497,19.640907 -18.50919,0 -35.27425,-7.50817 -47.409804,-19.640907 h -0.01164 C 71.30838,79.38133 63.798799,62.607805 63.798799,44.091912 c 0,-18.518716 7.509581,-35.2925931 19.641256,-47.4242679 h 0.01164 C 95.58725,-15.465089 112.35231,-22.973612 130.8615,-22.973612 v 0"
       style="fill:#fafafa;fill-opacity:1;fill-rule:evenodd;stroke:none;stroke-width:0.0352777" />
    <path
       id="path3-3"
       d="m 161.69944,69.977268 c -7.84132,-3.021125 -18.74648,-4.890928 -30.85124,-4.890928 -12.10459,0 -23.01076,1.869803 -30.852752,4.890928 -7.119296,2.742411 -11.524202,6.251414 -11.524202,9.868965 0,3.618058 4.404906,7.12554 11.524202,9.867614 7.841992,3.021463 18.748162,4.891096 30.852752,4.891096 12.10595,0 23.01127,-1.869633 30.85124,-4.891096 7.11945,-2.742074 11.52453,-6.251414 11.52453,-9.867614 0,-3.617551 -4.40508,-7.126554 -11.52453,-9.868965 z M 130.8482,59.981186 c 12.70524,0 24.26878,2.006881 32.68609,5.249662 9.14103,3.522507 14.79484,8.673748 14.79484,14.615385 0,5.940117 -5.65381,11.092033 -14.79484,14.613866 -8.41597,3.243119 -19.9795,5.24983 -32.68609,5.24983 -12.70659,0 -24.27012,-2.006711 -32.687441,-5.24983 -9.141031,-3.521833 -14.7945,-8.671891 -14.7945,-14.613866 0,-5.941637 5.653469,-11.092878 14.7945,-14.615385 8.417321,-3.242781 19.980851,-5.249662 32.687441,-5.249662 v 0"
       style="fill:#fafafa;fill-opacity:1;fill-rule:evenodd;stroke:none;stroke-width:0.0168815" />
    <path
       id="path4-5"
       d="m 151.38378,14.07936 c -4.83335,-1.749775 -11.58125,-2.833571 -19.09136,-2.833571 -7.51145,0 -14.25919,1.083796 -19.09221,2.833571 -4.06491,1.471566 -6.58111,3.202264 -6.58111,4.837412 0,1.634981 2.5162,3.365848 6.58111,4.837414 4.83302,1.749268 11.58076,2.833402 19.09221,2.833402 7.51011,0 14.25801,-1.084134 19.09136,-2.833402 4.06442,-1.471566 6.58112,-3.202433 6.58112,-4.837414 0,-1.635148 -2.5167,-3.365846 -6.58112,-4.837412 z M 132.29242,6.1404643 c 8.07445,0 15.44444,1.2072014 20.82476,3.1549967 6.14827,2.226679 9.9527,5.611602 9.9527,9.621311 0,4.008191 -3.80443,7.394296 -9.9527,9.621313 -5.38032,1.947626 -12.75031,3.154489 -20.82476,3.154489 -8.07598,0 -15.4458,-1.206863 -20.82578,-3.154489 -6.14877,-2.227017 -9.95303,-5.613122 -9.95303,-9.621313 0,-4.009709 3.80426,-7.394632 9.95303,-9.621311 5.37998,-1.9477953 12.7498,-3.1549967 20.82578,-3.1549967 v 0"
       style="fill:#fafafa;fill-opacity:1;fill-rule:evenodd;stroke:none;stroke-width:0.0168815" />
    <path
       id="path5-6"
       d="m 132.32314,-6.4287067 v 0.010129 h -0.0164 v -0.010129 c -5.13825,-0.011648 -9.75889,0.7799284 -13.07123,2.0706935 -2.57985,1.0042845 -4.1787,2.1199873 -4.18004,3.099794 -0.002,0.98233757 1.59462,2.108339 4.1743,3.1283233 3.30963,1.3081515 7.92269,2.1260634 13.03933,2.1377117 v -0.010129 h 0.002 v 0.010129 c 5.13707,0.011142 9.7589,-0.7802652 13.07123,-2.0708619 2.57849,-1.00411484 4.17734,-2.11981767 4.17886,-3.0994546 h -0.01 v -0.00152 h 0.01 c 0.002,-0.9828453 -1.59278,-2.108339 -4.16907,-3.1256227 -3.30777,-1.3066334 -7.91661,-2.1260647 -13.02886,-2.1390639 z m -0.0164,-5.0946873 h 0.0164 v 0.0096 c 5.79646,0.01486 11.06959,0.962586 14.90457,2.4777075 4.56528,1.8041328 7.38704,4.5740613 7.37809,7.8720444 h 0.0103 v 0.00152 h -0.0103 c -0.006,3.3020334 -2.84589,6.061833 -7.42873,7.8460459 -3.85068,1.5000961 -9.1282,2.4221665 -14.90609,2.4088305 v 0.010129 h -0.002 v -0.010129 c -5.80119,-0.012999 -11.07989,-0.9605616 -14.91436,-2.4758512 -4.5685,-1.8059901 -7.39042,-4.5767619 -7.38434,-7.8747437 0.008,-3.3022044 2.84893,-6.0620027 7.43025,-7.8460472 3.85086,-1.5002642 9.12668,-2.4225042 14.90609,-2.4095052 v -0.0096 0"
       style="fill:#fafafa;fill-opacity:1;fill-rule:evenodd;stroke:none;stroke-width:0.0168815" />
    <path
       id="path6-2"
       d="m 152.91157,64.751917 c 1.66418,2.532573 2.52954,5.118491 2.63234,7.665413 0.1126,2.775499 -0.6761,5.487185 -2.30552,8.0309 -1.57977,2.467579 -3.97054,4.781197 -7.10596,6.843111 -7.71183,5.066328 -20.07978,8.65805 -36.27477,9.314744 l -0.0986,-2.540676 c 15.71472,-0.638292 27.62854,-4.066432 34.97794,-8.895405 2.82648,-1.857985 4.96504,-3.9199 6.36012,-6.096271 1.34547,-2.100912 1.99692,-4.315267 1.90576,-6.557814 -0.0841,-2.088588 -0.812,-4.235923 -2.21232,-6.368909 l 2.121,-1.395093"
       style="fill:#fafafa;fill-opacity:1;fill-rule:evenodd;stroke:none;stroke-width:0.0168815" />
    <path
       id="path7-9"
       d="m 163.42456,67.018436 c 1.66402,2.531897 2.52936,5.117816 2.63184,7.664738 0.11294,2.775499 -0.67527,5.487354 -2.30468,8.031407 -1.58044,2.466903 -3.97071,4.781197 -7.10646,6.843111 -7.71133,5.06599 -20.07944,8.657375 -36.27494,9.314743 l -0.0984,-2.541351 c 15.71506,-0.638293 27.62837,-4.066263 34.97827,-8.894899 2.82614,-1.857984 4.96471,-3.919899 6.35962,-6.09644 1.34563,-2.101248 1.99693,-4.314928 1.90593,-6.558151 -0.0841,-2.087913 -0.812,-4.235248 -2.21267,-6.368233 l 2.12151,-1.394925"
       style="fill:#fafafa;fill-opacity:1;fill-rule:evenodd;stroke:none;stroke-width:0.0168815" />
    <path
       id="path8-1"
       d="m 157.07896,40.668673 c -6.21496,-3.15736 -15.04081,-5.623419 -25.00212,-6.646274 l -0.0218,-0.0014 c -9.95539,-1.021841 -19.10385,-0.399418 -25.83555,1.43105 -5.96324,1.62215 -9.79789,4.027436 -10.084371,6.824205 -0.286649,2.803353 2.976389,5.938768 8.480961,8.734692 6.21647,3.157191 15.04637,5.624769 25.00954,6.646104 l 0.0117,0.0015 c 9.95438,1.021842 19.1052,0.399248 25.83724,-1.43122 5.96476,-1.622149 9.79923,-4.026928 10.08588,-6.824204 0.28665,-2.802678 -2.97672,-5.938767 -8.48145,-8.734523 z M 132.57907,28.956072 c 10.59672,1.087004 20.06205,3.746695 26.79223,7.165888 7.43633,3.777082 11.77894,8.678139 11.25358,13.799332 -0.52535,5.123893 -5.76775,9.043793 -13.81351,11.23215 -7.27274,1.977845 -17.07806,2.659354 -27.68221,1.571506 l -0.0132,-0.0014 c -10.5969,-1.08717 -20.06156,-3.74686 -26.79173,-7.166054 -7.438356,-3.778431 -11.77962,-8.6778 -11.254098,-13.799161 0.525355,-5.125413 5.768095,-9.043962 13.811998,-11.231813 7.27156,-1.976832 17.07115,-2.65699 27.66939,-1.572012 l 0.0275,0.0015 v 0"
       style="fill:#fafafa;fill-opacity:1;fill-rule:evenodd;stroke:none;stroke-width:0.0168815" />
    <path
       id="path9-2"
       d="m 116.9881,58.767401 c -1.32926,-1.913357 -2.01819,-3.876852 -2.09213,-5.824648 -0.0736,-1.933276 0.46002,-3.826037 1.56727,-5.608899 1.0605,-1.707403 2.65244,-3.320774 4.74322,-4.773771 5.86533,-4.079262 15.82799,-7.015304 29.11767,-7.524452 l 0.0901,2.543546 c -12.7839,0.490578 -22.27456,3.250208 -27.77491,7.076247 -1.80599,1.254807 -3.16327,2.617656 -4.04314,4.035876 -0.83361,1.34276 -1.23725,2.746462 -1.18255,4.161812 0.0552,1.448439 0.59508,2.948705 1.63836,4.449644 l -2.06394,1.464645"
       style="fill:#fafafa;fill-opacity:1;fill-rule:evenodd;stroke:none;stroke-width:0.0168815" />
    <path
       id="path10-7"
       d="m 105.18788,55.757249 c -1.32976,-1.91285 -2.0187,-3.876852 -2.09264,-5.824309 -0.0724,-1.930576 0.46036,-3.82013 1.56729,-5.604343 1.06505,-1.717869 2.65834,-3.329721 4.7449,-4.779847 5.86635,-4.079431 15.82765,-7.012266 29.11632,-7.521752 l 0.0895,2.544052 c -12.78171,0.490579 -22.27151,3.246832 -27.77321,7.07304 -1.80886,1.257508 -3.16935,2.617656 -4.04449,4.030136 -0.83378,1.342929 -1.23607,2.749502 -1.18221,4.169073 0.0549,1.448269 0.59456,2.94904 1.63801,4.449474 l -2.06343,1.464476"
       style="fill:#fafafa;fill-opacity:1;fill-rule:evenodd;stroke:none;stroke-width:0.0168815" />
    <path
       id="path11-0"
       d="m 135.79281,27.833448 c 0.72389,-1.04058 1.14609,-2.076433 1.27371,-3.076497 0.15329,-1.203993 -0.10854,-2.405286 -0.76405,-3.552557 -0.70193,-1.229991 -1.85258,-2.414908 -3.41649,-3.503431 -3.49229,-2.427739 -8.96766,-4.336538 -16.15786,-5.259959 l 0.31535,-2.5237944 c 7.60734,0.9771044 13.4693,3.0435774 17.27507,5.6884134 1.87521,1.305282 3.27892,2.767057 4.16571,4.322356 0.93506,1.636836 1.30714,3.375976 1.07956,5.147021 -0.1808,1.419571 -0.7465,2.840999 -1.70756,4.222924 l -2.06344,-1.464476"
       style="fill:#fafafa;fill-opacity:1;fill-rule:evenodd;stroke:none;stroke-width:0.0168815" />
    <path
       id="path12-9"
       d="m 146.92384,26.18395 c 0.77537,-1.114521 1.20214,-2.222627 1.29786,-3.293931 0.10281,-1.164491 -0.18807,-2.329319 -0.84813,-3.44384 -0.70463,-1.188125 -1.83334,-2.336915 -3.35707,-3.395896 -3.92125,-2.724855 -10.3376,-4.792846 -18.87984,-5.549478 l 0.21726,-2.5442216 c 8.98792,0.795798 15.82918,3.0332806 20.09515,5.9981906 1.81916,1.26443 3.19349,2.679779 4.08669,4.186291 0.93473,1.578764 1.34293,3.258986 1.19251,4.97331 v 0.0047 c -0.13471,1.517653 -0.70936,3.044422 -1.741,4.528987 l -2.06343,-1.464138"
       style="fill:#fafafa;fill-opacity:1;fill-rule:evenodd;stroke:none;stroke-width:0.0168815" />
    <path
       id="path13-3"
       d="m 140.92988,63.604646 c 1.68426,2.423856 2.55721,4.903757 2.65091,7.359687 0.093,2.433985 -0.58157,4.820195 -1.9792,7.07169 -1.35592,2.185149 -3.39184,4.244194 -6.06049,6.099478 -7.56952,5.26283 -20.44526,9.05139 -37.642343,9.709603 l -0.08964,-2.543715 c 16.690123,-0.639643 29.094533,-4.251623 36.299423,-9.261396 2.39364,-1.663678 4.19355,-3.468319 5.36006,-5.3496 1.12415,-1.811561 1.66842,-3.708712 1.59447,-5.627471 v -0.0044 c -0.0736,-1.957755 -0.79749,-3.976453 -2.19663,-5.989412 l 2.06344,-1.464475"
       style="fill:#fafafa;fill-opacity:1;fill-rule:evenodd;stroke:none;stroke-width:0.0168815" />
  </g>
</svg>
