<svg xmlns:inkscape="http://www.inkscape.org/namespaces/inkscape" xmlns:sodipodi="http://sodipodi.sourceforge.net/DTD/sodipodi-0.dtd" xmlns="http://www.w3.org/2000/svg" xmlns:svg="http://www.w3.org/2000/svg" width="5.5711546mm" height="5.5711546mm" viewBox="0 0 5.5711546 5.5711546" version="1.1" id="svg1" inkscape:version="1.3.2 (091e20e, 2023-11-25)" sodipodi:docname="lupa.svg">
  <sodipodi:namedview id="namedview1" pagecolor="#ffffff" bordercolor="#000000" borderopacity="0.25" inkscape:showpageshadow="2" inkscape:pageopacity="0.0" inkscape:pagecheckerboard="0" inkscape:deskcolor="#d1d1d1" inkscape:document-units="mm" inkscape:zoom="2.9077441" inkscape:cx="47.115563" inkscape:cy="70.15748" inkscape:window-width="1850" inkscape:window-height="1016" inkscape:window-x="1510" inkscape:window-y="27" inkscape:window-maximized="1" inkscape:current-layer="layer1"/>
  <defs id="defs1">
    <clipPath clipPathUnits="userSpaceOnUse" id="clipPath43">
      <path d="M 0,464 H 528 V 0 H 0 Z" transform="translate(-135.20751,-435.79201)" id="path43"/>
    </clipPath>
  </defs>
  <g inkscape:label="Capa 1" inkscape:groupmode="layer" id="layer1" transform="translate(-94.456249,-102.12917)">
    <path id="path42" d="m 0,0 c -2.757,0 -5,2.243 -5,5 0,2.757 2.243,5 5,5 C 2.757,10 5,7.757 5,5 5,2.243 2.757,0 0,0 M 8.646,-1.525 5.892,1.229 C 6.59,2.318 7,3.61 7,5 7,8.866 3.866,12 0,12 -3.866,12 -7,8.866 -7,5 c 0,-3.866 3.134,-7 7,-7 1.39,0 2.681,0.41 3.77,1.108 l 2.754,-2.754 c 0.195,-0.195 0.513,-0.195 0.707,0 l 1.415,1.414 c 0.195,0.195 0.195,0.513 0,0.707" style="fill:#1d1d1b;fill-opacity:1;fill-rule:nonzero;stroke:none" transform="matrix(0.35277776,0,0,-0.35277776,96.925693,106.3625)" clip-path="url(#clipPath43)"/>
  </g>
</svg>