<?xml version="1.0" encoding="UTF-8" standalone="no"?>
<!-- Created with Inkscape (http://www.inkscape.org/) -->

<svg
   width="21.4"
   height="21"
   viewBox="0 0 5.6620832 5.5562501"
   version="1.1"
   id="svg1"
   inkscape:version="1.3.2 (091e20e, 2023-11-25)"
   sodipodi:docname="ojo.svg"
   xmlns:inkscape="http://www.inkscape.org/namespaces/inkscape"
   xmlns:sodipodi="http://sodipodi.sourceforge.net/DTD/sodipodi-0.dtd"
   xmlns="http://www.w3.org/2000/svg"
   xmlns:svg="http://www.w3.org/2000/svg">
  <sodipodi:namedview
     id="namedview1"
     pagecolor="#ffffff"
     bordercolor="#000000"
     borderopacity="0.25"
     inkscape:showpageshadow="2"
     inkscape:pageopacity="0.0"
     inkscape:pagecheckerboard="0"
     inkscape:deskcolor="#d1d1d1"
     inkscape:document-units="mm"
     inkscape:zoom="11.630976"
     inkscape:cx="13.584414"
     inkscape:cy="14.100278"
     inkscape:window-width="1850"
     inkscape:window-height="1016"
     inkscape:window-x="1510"
     inkscape:window-y="27"
     inkscape:window-maximized="1"
     inkscape:current-layer="layer1" />
  <defs
     id="defs1">
    <clipPath
       clipPathUnits="userSpaceOnUse"
       id="clipPath17">
      <path
         d="M 0,464 H 528 V 0 H 0 Z"
         transform="translate(-103.8838,-433.23681)"
         id="path17" />
    </clipPath>
    <clipPath
       clipPathUnits="userSpaceOnUse"
       id="clipPath19">
      <path
         d="M 0,464 H 528 V 0 H 0 Z"
         transform="translate(-104.17581,-438.67721)"
         id="path19" />
    </clipPath>
  </defs>
  <g
     inkscape:label="Capa 1"
     inkscape:groupmode="layer"
     id="layer1"
     transform="translate(-101.86458,-146.84375)">
    <path
       id="path16"
       d="M 0,0 C -2.002,0.162 -3.492,1.915 -3.331,3.915 -3.169,5.917 -1.418,7.407 0.584,7.246 2.583,7.084 4.076,5.333 3.915,3.331 3.753,1.332 2,-0.161 0,0 M -7.835,4.557 -7.884,3.954 C -4.748,-2.377 4.008,-3.057 8.117,2.688 L 8.166,3.292 C 5.029,9.622 -3.726,10.303 -7.835,4.557"
       style="fill:#1d1d1b;fill-opacity:1;fill-rule:nonzero;stroke:none"
       transform="matrix(0.35277776,0,0,-0.35277776,104.64588,150.8999)"
       clip-path="url(#clipPath17)" />
    <path
       id="path18"
       d="m 0,0 c -1.003,0 -1.817,-0.812 -1.817,-1.817 0,-1.003 0.814,-1.818 1.817,-1.818 1.003,0 1.817,0.815 1.817,1.818 C 1.817,-0.812 1.003,0 0,0"
       style="fill:#1d1d1b;fill-opacity:1;fill-rule:nonzero;stroke:none"
       transform="matrix(0.35277776,0,0,-0.35277776,104.69562,148.9807)"
       clip-path="url(#clipPath19)" />
  </g>
</svg>