<svg xmlns:inkscape="http://www.inkscape.org/namespaces/inkscape" xmlns:sodipodi="http://sodipodi.sourceforge.net/DTD/sodipodi-0.dtd" xmlns="http://www.w3.org/2000/svg" xmlns:svg="http://www.w3.org/2000/svg" width="5.2916665mm" height="5.6444321mm" viewBox="0 0 5.2916665 5.6444321" version="1.1" id="svg1" inkscape:version="1.3.2 (091e20e, 2023-11-25)" sodipodi:docname="tacho.svg">
  <sodipodi:namedview id="namedview1" pagecolor="#ffffff" bordercolor="#000000" borderopacity="0.25" inkscape:showpageshadow="2" inkscape:pageopacity="0.0" inkscape:pagecheckerboard="0" inkscape:deskcolor="#d1d1d1" inkscape:document-units="mm" inkscape:zoom="4.1121711" inkscape:cx="59.700823" inkscape:cy="46.690664" inkscape:window-width="1850" inkscape:window-height="1016" inkscape:window-x="1510" inkscape:window-y="27" inkscape:window-maximized="1" inkscape:current-layer="layer1"/>
  <defs id="defs1">
    <clipPath clipPathUnits="userSpaceOnUse" id="clipPath11">
      <path d="M 0,464 H 528 V 0 H 0 Z" transform="translate(-332.00001,-434.00001)" id="path11"/>
    </clipPath>
    <clipPath clipPathUnits="userSpaceOnUse" id="clipPath13">
      <path d="M 0,464 H 528 V 0 H 0 Z" id="path13"/>
    </clipPath>
  </defs>
  <g inkscape:label="Capa 1" inkscape:groupmode="layer" id="layer1" transform="translate(-60.589584,-134.67292)">
    <path id="path10" d="M 0,0 H -1 V 8 H -3 V 0 H -4 V 8 H -6 V 0 H -7 V 8 H -9 V -1.5 C -9,-1.775 -8.775,-2 -8.5,-2 h 10 C 1.775,-2 2,-1.775 2,-1.5 V 8 H 0 Z" style="fill:#1d1d1b;fill-opacity:1;fill-rule:nonzero;stroke:none" transform="matrix(0.35277776,0,0,-0.35277776,64.470145,139.6118)" clip-path="url(#clipPath11)"/>
    <path id="path12" d="m 327,447 h 3 v -1 h -3 z m 8,-1 h -4 v 1.5 c 0,0.274 -0.225,0.5 -0.5,0.5 h -4 c -0.275,0 -0.5,-0.226 -0.5,-0.5 V 446 h -4 c -0.55,0 -1,-0.45 -1,-1 v -1 c 0,-0.55 0.45,-1 1,-1 h 13 c 0.55,0 1,0.45 1,1 v 1 c 0,0.55 -0.45,1 -1,1" style="fill:#1d1d1b;fill-opacity:1;fill-rule:nonzero;stroke:none" transform="matrix(0.35277776,0,0,-0.35277776,-52.652077,292.71736)" clip-path="url(#clipPath13)"/>
  </g>
</svg>