<?xml version="1.0" ?><!DOCTYPE svg  PUBLIC '-//W3C//DTD SVG 1.1//EN'  'http://www.w3.org/Graphics/SVG/1.1/DTD/svg11.dtd'><svg height="100px" style="enable-background:new 0 0 100 100;" version="1.1" viewBox="0 0 100 100" width="100px" xml:space="preserve" xmlns="http://www.w3.org/2000/svg" xmlns:xlink="http://www.w3.org/1999/xlink"><g id="Circle"/><g id="Skin"><g><path d="M22.119,88.423c-0.07,0-0.141-0.025-0.196-0.078c-0.113-0.108-0.117-0.288-0.009-0.401    c5.906-6.177,19.739-20.547,20.642-20.557c0.001,0,0.002,0,0.002,0c0.076,0,0.17,0.037,0.224,0.091    c0.1,0.1,0.111,0.258,0.026,0.371L33.9,79.687c1.507-0.925,5.934-5.755,9.844-10.509c0.051-0.062,0.125-0.1,0.205-0.104    c0.074-0.007,0.157,0.026,0.214,0.083c0.493,0.492-0.4,1.719-3.729,5.682c-1.124,1.338-2.6,3.096-3.047,3.858    c0.334-0.22,0.863-0.688,1.523-1.329c-0.013-0.037-0.02-0.075-0.02-0.107c0.007-0.654,4.225-4.793,6.739-7.203    c0.11-0.103,0.281-0.104,0.391-0.001c0.11,0.104,0.119,0.276,0.021,0.391c-0.099,0.114-0.209,0.243-0.331,0.385    c0.07,0.093,0.077,0.221,0.014,0.321c-0.352,0.561-0.775,1.235-1.167,1.862c0.438-0.443,0.893-0.905,1.262-1.281    c0.108-0.112,0.289-0.115,0.4-0.004c0.112,0.109,0.114,0.289,0.004,0.4c-2.97,3.029-2.963,2.987-3.136,3.02    c-0.076,0-0.15-0.03-0.203-0.085c-0.145-0.147-0.17-0.175,1.218-2.396c-2.486,2.807-6.093,6.701-6.989,6.735    c-0.114,0.006-0.234-0.037-0.314-0.117c-0.39-0.389,0.089-1.108,3.201-4.814c0.228-0.271,0.473-0.562,0.725-0.864    c-2.721,3.104-6.125,6.728-7.236,6.782c-0.217,0.002-0.339-0.075-0.413-0.148c-0.1-0.1-0.111-0.258-0.026-0.371l7.899-10.497    c-3.687,3.478-12.477,12.528-18.626,18.961C22.268,88.394,22.193,88.423,22.119,88.423z" style="fill:#CCCCCC;"/><path d="M33.638,74.6c-0.072,0-0.145-0.027-0.2-0.082c-0.109-0.108-0.112-0.284-0.006-0.396    c0.759-0.801,1.438-1.514,2.046-2.147c-0.044-0.102-0.027-0.225,0.054-0.31c3.446-3.629,3.596-3.631,3.74-3.633    c0.015-0.005,0.052,0.003,0.078,0.01c1.248-1.203,1.354-1.206,1.447-1.184c0.075,0,0.159,0.033,0.212,0.086    c0.111,0.111,0.111,0.29,0,0.401c-0.042,0.043-0.095,0.069-0.15,0.079c-0.197,0.129-0.789,0.691-1.58,1.479    c-0.84,1.135-3.311,3.576-5.446,5.618C33.779,74.573,33.708,74.6,33.638,74.6z" style="fill:#CCCCCC;"/><path d="M20.646,96.564c-0.063,0-0.126-0.021-0.178-0.062c-0.117-0.095-0.14-0.265-0.051-0.387    c0.352-0.487,0.713-1,1.039-1.478c-0.061,0.029-0.114,0.045-0.161,0.049c-0.081-0.001-0.218-0.044-0.276-0.102    c-0.119-0.119-0.312-0.312,0.572-3.046c-0.838,0.816-2.282,2.316-3.588,3.71c-0.054,0.057-0.143,0.097-0.207,0.089    c-0.075,0-0.147-0.029-0.201-0.083c-0.158-0.158-0.283-0.283,1.453-2.777c-3.325,3.384-3.436,3.385-3.561,3.385    c0,0-0.001,0-0.001,0c-0.076,0-0.151-0.031-0.204-0.085c-0.053-0.054-0.084-0.132-0.084-0.207    c0.001-0.219,0.001-0.253,4.299-4.454c6.171-6.033,18.895-18.473,19.354-21.35c-2.371,2.214-17.026,17.009-22.845,22.899    c-0.109,0.109-0.289,0.112-0.399,0.004c-0.112-0.108-0.115-0.286-0.008-0.398c4.382-4.596,10.739-11.46,13.621-14.98    c-7.941,8.137-9.884,9.957-10.42,10.364l-0.014,0.017l-0.004-0.003c-0.142,0.106-0.198,0.09-0.207,0.104    c-0.075,0-0.153-0.031-0.206-0.085c-0.104-0.104-0.111-0.271-0.015-0.384l4.317-5.062c-0.054-0.008-0.106-0.032-0.149-0.071    c-0.115-0.106-0.123-0.285-0.017-0.4c3.636-3.955,3.919-3.961,4.055-3.964c0.064-0.011,0.166,0.032,0.221,0.088    c0.104,0.104,0.111,0.271,0.015,0.384l-4.23,4.959c2.522-2.536,5.73-5.81,8.23-8.378c0.053-0.055,0.112-0.076,0.203-0.086    c0.075,0,0.147,0.029,0.201,0.083c0.254,0.254,0.536,0.537-4.194,5.892C38.708,68.971,38.888,68.97,39.015,68.97h0    c0.075,0,0.149,0.03,0.203,0.084c0.142,0.142,0.213,0.334,0.212,0.571c-0.014,2.43-8.851,11.412-17.73,20.127    c-0.004,0.007-0.008,0.013-0.013,0.02c-0.763,1.044-1.558,2.157-2.208,3.096c2.382-2.476,2.566-2.479,2.685-2.481    c0.055,0.007,0.16,0.032,0.214,0.087c0.077,0.076,0.103,0.189,0.068,0.292c-0.388,1.139-0.784,2.453-0.923,3.119    c0.316-0.313,0.79-0.871,1.177-1.377c0.049-0.065,0.125-0.105,0.206-0.111c0.077-0.005,0.161,0.024,0.22,0.083    c0.108,0.108,0.213,0.213-0.248,1.013c0.933-0.923,1.088-0.927,1.171-0.929c0.025,0.001,0.055,0.003,0.083,0.01    c0.055-0.015,0.115-0.016,0.172,0.005c0.107,0.037,0.182,0.134,0.19,0.247l0.082,1.115c0.298-0.299,0.694-0.698,0.98-0.99    c0.11-0.111,0.289-0.112,0.401-0.003c0.112,0.11,0.113,0.29,0.003,0.401c-1.482,1.504-1.482,1.504-1.621,1.504    c0,0-0.001,0-0.001,0c-0.148,0-0.272-0.114-0.283-0.263l-0.076-1.035c-0.147,0.163-0.343,0.361-0.599,0.605    c-1.301,1.376-1.448,1.38-1.561,1.383c-0.034,0-0.067-0.005-0.1-0.016c-0.289,0.312-0.581,0.631-0.865,0.945    C20.8,96.533,20.723,96.564,20.646,96.564z" style="fill:#CCCCCC;"/></g><g><path d="M79.231,93.686c-0.075,0-0.152-0.031-0.205-0.085c-0.089-0.089-0.109-0.226-0.049-0.336    l0.821-1.501c-1.11,1.133-1.178,1.112-1.286,1.115c-0.074,0-0.149-0.03-0.203-0.082c-0.173-0.174-0.177-0.177,0.613-2.234    c0.281-0.734,0.686-1.787,0.934-2.527c-5.387,5.55-5.5,5.512-5.649,5.516c-0.075,0-0.15-0.03-0.203-0.083    c-0.228-0.229-0.237-0.239,1.892-2.802l-1.222,1.221c-0.097,0.096-0.248,0.109-0.361,0.033c-0.112-0.077-0.153-0.225-0.098-0.349    c0.652-1.462,1.319-3.163,1.511-3.94c-0.591,0.529-1.782,1.813-2.829,3.017c-0.052,0.059-0.125,0.094-0.204,0.097    c-0.078,0.008-0.155-0.027-0.21-0.083c-0.233-0.233-0.333-0.333,3.07-6.306c-2.296,2.521-3.107,3.279-3.478,3.288    c-0.002,0-0.004,0-0.005,0c-0.078,0-0.192-0.044-0.246-0.098c-0.066-0.065-0.101-0.156-0.098-0.253    c0.006-0.191,0.275-0.568,0.805-1.126l1.122-2.7c-0.292,0.312-0.615,0.664-0.909,0.984c-2.167,2.361-2.523,2.678-2.792,2.683    c-0.085-0.001-0.175-0.036-0.229-0.091c-0.154-0.154-0.494-0.492,2.6-5.569l-2.194,2.194c-0.102,0.104-0.265,0.113-0.379,0.02    c-0.112-0.091-0.138-0.253-0.059-0.375c1.573-2.41,3.694-5.696,4.94-7.694c-0.672,0.675-1.476,1.486-2.198,2.215    c-2.166,2.186-2.947,2.975-3.269,3.259c-0.017,0.021-0.033,0.04-0.05,0.06l-0.01-0.008c-0.132,0.11-0.178,0.106-0.208,0.108    c-0.11,0-0.21-0.064-0.256-0.164c-0.047-0.101-0.03-0.218,0.04-0.302c0.072-0.086,0.146-0.172,0.22-0.261    c-0.491,0.443-0.568,0.422-0.625,0.438c-0.076,0-0.155-0.032-0.208-0.086c-0.107-0.106-0.111-0.279-0.009-0.392l1.918-2.102    c-0.093-0.099-0.103-0.249-0.022-0.359l3.41-4.706c-1.209,1.191-2.998,3.128-4.632,4.989c-0.052,0.06-0.125,0.095-0.204,0.097    c-0.067,0.003-0.154-0.026-0.209-0.083c-0.168-0.168-0.476-0.477,2.758-4.542l-2.507,2.507c-0.107,0.111-0.288,0.112-0.398,0.002    c-0.066-0.064-0.111-0.109-0.002-0.402l0.001-0.001c0.21-0.562,0.983-2.03,3.251-6.28c-3.284,3.359-3.378,3.36-3.511,3.362    c-0.075,0.019-0.149-0.029-0.204-0.082c-0.102-0.101-0.112-0.261-0.026-0.374l1.873-2.449c-1.535,1.552-2.132,2.117-2.392,2.323    l-0.026,0.029l-0.005-0.005c-0.126,0.096-0.16,0.086-0.2,0.095c-0.048,0-0.096-0.013-0.139-0.036    c-0.104,0.051-0.231,0.031-0.32-0.054c-0.11-0.109-0.112-0.288-0.004-0.399c1.77-1.819,3.602-3.807,4.706-5.13    c-0.996,1.006-2.337,2.437-3.363,3.563c-0.053,0.058-0.126,0.091-0.203,0.093c-0.07,0.004-0.152-0.027-0.207-0.083    c-0.13-0.13-0.13-0.13,0.229-1.257c0.29-0.912,0.988-3.104,1.18-3.975c-0.729,0.551-2.461,2.547-3.771,4.057    c-2.615,3.013-3.444,3.891-3.896,3.907c-0.071,0-0.216-0.048-0.271-0.104c-0.103-0.102-0.111-0.264-0.021-0.376l4.115-5.185    c-1.44,1.464-3.165,3.262-4.457,4.627c-0.053,0.056-0.119,0.118-0.206,0.088c-0.075,0-0.147-0.029-0.2-0.083    c-0.06-0.06-0.131-0.166-0.129-0.335c0.002-0.247,0.164-0.667,0.928-1.615c-0.173,0.115-0.311,0.181-0.406,0.185    c-0.079,0.01-0.215-0.047-0.27-0.103c-0.282-0.282-0.108-0.578,1.861-3.163c0.73-0.959,1.816-2.384,2.36-3.266    c-0.677,0.687-1.751,1.879-2.735,2.972c-3.575,3.965-4.941,5.375-5.492,5.39c-0.143,0.008-0.205-0.035-0.275-0.106    c-0.094-0.094-0.11-0.239-0.04-0.352l4.631-7.361l-0.633,0.632c-0.109,0.111-0.291,0.111-0.4,0c-0.111-0.11-0.111-0.29,0-0.4    l2.415-2.415c0.102-0.104,0.264-0.111,0.377-0.021s0.14,0.25,0.063,0.373l-5.266,8.37c1.1-1.05,2.89-3.036,4.199-4.488    c2.871-3.186,3.391-3.706,3.708-3.715c0.064,0,0.176,0.036,0.231,0.092c0.416,0.416-0.236,1.416-2.692,4.641    c-0.444,0.583-0.95,1.247-1.319,1.764c1.023-0.953,2.817-2.9,4.422-4.76c0.052-0.06,0.125-0.095,0.204-0.098    c0.076-0.01,0.154,0.026,0.211,0.082c0.062,0.062,0.12,0.12,0.071,0.28c0.09-0.088,0.182-0.177,0.274-0.267    c0.087-0.085,0.16-0.155,0.217-0.211l0.151-0.15c0.081-0.082,0.205-0.104,0.31-0.062c0.106,0.045,0.175,0.149,0.174,0.264    c0,0.07-0.001,0.101-0.085,0.196l0.002,0.002l-1.426,1.426c1.62-1.59,1.769-1.571,1.854-1.575c0.076,0,0.16,0.033,0.213,0.087    c0.103,0.102,0.111,0.264,0.021,0.376l-3.474,4.377c0.085-0.099,0.169-0.195,0.252-0.29c2.638-3.039,3.854-4.373,4.421-4.393    c0.094-0.001,0.219,0.035,0.295,0.112c0.181,0.181,0.266,0.266-1.08,4.503c3.711-4.023,4.07-4.032,4.193-4.035    c0.064-0.018,0.175,0.035,0.229,0.091c0.121,0.12,0.3,0.299-0.658,1.557c0.13-0.133,0.256-0.262,0.377-0.387    c0.104-0.106,0.273-0.115,0.389-0.017c0.113,0.099,0.131,0.268,0.04,0.387l-2.226,2.91c0.638-0.649,1.283-1.311,1.817-1.859    c0.098-0.102,0.257-0.115,0.37-0.031c0.114,0.083,0.149,0.237,0.083,0.362c-1.098,2.057-2.574,4.84-3.459,6.542l5.631-5.631    c0.107-0.109,0.28-0.111,0.393-0.008s0.122,0.276,0.023,0.393c-1.838,2.146-3.723,4.451-5.018,6.151    c1.814-1.983,3.736-3.946,4.249-3.963c0.07-0.007,0.208,0.045,0.264,0.101c0.099,0.098,0.111,0.254,0.029,0.366l-2.416,3.334    c1.298-1.421,1.458-1.544,1.66-1.549c0.063-0.017,0.166,0.033,0.221,0.088c0.107,0.106,0.111,0.279,0.009,0.392l-0.574,0.63    c0.023,0.013,0.046,0.029,0.065,0.049c0.064,0.064,0.108,0.107-0.043,0.35l0.048,0.046c-0.107,0.113-0.212,0.224-0.315,0.332    c-0.09,0.118-0.2,0.259-0.335,0.426c2.486-2.507,2.504-2.507,2.637-2.507c0,0,0,0,0.001,0c0.075,0,0.147,0.029,0.2,0.083    c0.196,0.195,0.28,0.278-4.483,7.61l2.017-2.017c0.102-0.104,0.264-0.111,0.377-0.021c0.113,0.091,0.14,0.251,0.062,0.373    c-1.563,2.473-3.163,5.21-3.72,6.45c0.534-0.529,1.344-1.411,1.943-2.064c1.731-1.887,1.876-2.012,2.086-2.017    c0.001,0,0.003,0,0.005,0c0.076,0,0.158,0.033,0.211,0.087c0.081,0.081,0.105,0.203,0.062,0.309l-1.021,2.46    c0.456-0.493,0.872-0.855,1.126-0.872c0.077,0.001,0.164,0.015,0.231,0.059c0.294-0.323,0.56-0.616,0.767-0.846    c1.019-1.128,1.019-1.128,1.169-1.132c0.079,0.004,0.154,0.028,0.209,0.084c0.169,0.168,0.169,0.168-0.937,2.104    c-0.684,1.198-1.85,3.242-2.592,4.649c1.921-2.109,2.225-2.12,2.335-2.124c0.076-0.008,0.188,0.038,0.243,0.094    c0.115,0.115,0.4,0.399-0.896,3.513l3.599-3.599c0.053-0.054,0.125-0.083,0.2-0.083l0,0c0.076,0,0.148,0.03,0.201,0.083    c0.226,0.228,0.261,0.263-1.907,2.883c0.943-0.96,1.927-1.97,2.723-2.792c0.054-0.055,0.126-0.086,0.202-0.086    c0,0,0.001,0,0.002,0c0.075,0,0.147,0.029,0.2,0.083c0.227,0.227,0.157,0.582-1.092,3.841c-0.112,0.293-0.23,0.6-0.335,0.878    c0.521-0.524,1.212-1.241,1.747-1.805c0.098-0.104,0.258-0.116,0.372-0.034c0.115,0.084,0.15,0.24,0.082,0.365l-0.945,1.728    c0.354-0.368,0.737-0.77,1.09-1.138c2.591-2.712,2.636-2.713,2.825-2.714c0.089,0.025,0.157,0.031,0.21,0.086    c0.155,0.155,0.175,0.175-1.22,3.211c1.761-1.801,2.393-2.417,2.657-2.627c0.009-0.009,0.017-0.017,0.024-0.025l0.004,0.004    c0.115-0.088,0.151-0.089,0.194-0.089c0.001,0,0.002,0,0.002,0c0.075,0,0.149,0.03,0.202,0.084c0.11,0.11,0.111,0.288,0.002,0.399    c-0.034,0.034-0.068,0.068-0.102,0.104c0.007,0.006,0.015,0.013,0.021,0.02c0.112,0.109,0.113,0.289,0.004,0.401    c-2.741,2.788-2.741,2.788-2.903,2.788c-0.074,0.012-0.148-0.028-0.202-0.083c-0.011-0.011-0.021-0.021-0.032-0.032    c-0.217,0.223-0.425,0.436-0.615,0.631c-0.095,0.1-0.249,0.117-0.363,0.036c-0.114-0.078-0.155-0.227-0.098-0.352    c0.43-0.932,1.019-2.22,1.437-3.151c-0.5,0.51-1.12,1.158-1.638,1.701c-2.419,2.531-2.453,2.532-2.639,2.534    C79.233,93.686,79.232,93.686,79.231,93.686z M63.219,68.462c-0.35,0.368-0.655,0.696-0.921,0.989    c0.896-0.934,1.637-1.696,2.251-2.318L63.219,68.462z" style="fill:#CCCCCC;"/></g><g><path d="M57.462,62.694c-0.071,0-0.143-0.026-0.198-0.08c-0.174-0.17-0.174-0.17,0.388-1.076    c0.321-0.518,1.063-1.715,1.547-2.62c-3.019,3.238-3.289,3.244-3.411,3.247c-0.001,0-0.003,0-0.005,0    c-0.076,0-0.164-0.035-0.217-0.089c-0.103-0.102-0.111-0.265-0.021-0.377c1.424-1.777,2.926-3.722,3.877-5.042    c-0.438,0.469-0.92,0.996-1.337,1.453c-2.314,2.534-2.808,3.015-3.104,3.021c-0.093-0.015-0.177-0.037-0.231-0.092    c-0.163-0.162-0.182-0.29,0.282-0.867c-0.194,0.207-0.387,0.414-0.577,0.619c-0.053,0.056-0.126,0.089-0.203,0.09    c-0.001,0-0.003,0-0.005,0h-0.001c-0.392,0.439-0.784,0.886-1.168,1.328c-0.051,0.06-0.125,0.095-0.204,0.098    c-0.075,0.007-0.155-0.027-0.21-0.083c-0.077-0.076-0.117-0.184-0.112-0.3c0.015-0.409,0.927-1.441,2.122-2.624    c0.382-0.515,0.94-1.228,1.737-2.229c0.026-0.032,0.052-0.065,0.078-0.098l-2.858,2.857c-0.109,0.111-0.291,0.111-0.4,0    c-0.576-0.575,0.566-2.041,3.734-5.776c1.059-1.249,2.502-2.951,3.226-4.021l-9.609,9.609c-0.054,0.054-0.125,0.083-0.201,0.083    l0,0c-0.075,0-0.147-0.029-0.201-0.083c-0.055-0.055-0.121-0.152-0.119-0.305c0.003-0.306,0.342-0.801,1.064-1.588l-0.568,0.597    c-0.106,0.11-0.28,0.117-0.394,0.017c-0.418,0.378-0.597,0.45-0.676,0.457c-0.075,0-0.159-0.033-0.212-0.087    c-0.054-0.053-0.083-0.126-0.083-0.201c0-0.076,0.031-0.148,0.085-0.201c1.625-1.594,3.271-3.279,4.753-4.864    c0.489-0.544,0.991-1.092,1.487-1.619c1.658-1.841,2.965-3.426,3.567-4.393c-2.69,3.131-9.634,11.045-11.134,11.106    c-0.194,0.003-0.303-0.069-0.37-0.135c-0.304-0.305-0.223-0.446,3.59-4.418c2.677-2.787,8.875-9.242,8.628-10.276    c-0.255,0.072-0.78,0.48-1.498,1.136c-0.008,0.443-1.138,1.792-7.943,8.602c-0.738,0.738-1.391,1.392-1.622,1.635    c-0.033,0.038-0.065,0.076-0.099,0.114c-0.076,0.09-0.199,0.122-0.313,0.08c-0.111-0.041-0.185-0.147-0.185-0.266    c0-0.05,0-0.083,0.075-0.18l-0.006-0.006c0.279-0.322,0.745-0.859,1.334-1.529c-0.003-0.003-0.006-0.006-0.008-0.009    c-0.065-0.065-0.143-0.182-0.139-0.365c0.012-0.538,0.875-1.584,2.313-3.023c3.404-4.058,5.583-6.819,6.513-8.251l-8.801,8.801    c-0.106,0.107-0.295,0.107-0.401,0c-0.066-0.066-0.116-0.116,0.017-0.384l-0.017-0.016l0.052-0.052    c0.343-0.642,1.557-2.342,5.192-7.317c-1.629,1.63-3.627,3.635-4.688,4.7c-0.104,0.104-0.268,0.111-0.381,0.019    s-0.137-0.256-0.055-0.377l5.257-7.777c-5.121,5.188-5.198,5.188-5.336,5.189c0,0,0,0-0.001,0c-0.075,0-0.148-0.03-0.201-0.083    c-0.099-0.099-0.166-0.166,0.104-0.558c-0.487,0.541-0.979,1.097-1.458,1.646c-0.052,0.06-0.125,0.095-0.204,0.097    c-0.08-0.002-0.154-0.027-0.21-0.083c-0.426-0.426,0.295-1.599,4.062-6.605c0.242-0.322,0.491-0.653,0.734-0.978    c-0.271,0.266-0.567,0.556-0.893,0.875c-1.32,1.506-2.129,2.376-2.635,2.71c-1.873,2.017-2.4,2.481-2.696,2.488    c-0.086,0.011-0.186-0.04-0.24-0.094s-0.085-0.13-0.084-0.206c0.001-0.165,0.001-0.195,2.27-2.4    c0.009-0.041,0.028-0.08,0.055-0.114c1.4-1.749,2.835-3.636,3.802-5.018c-2.264,2.504-5.319,5.745-5.99,5.766    c-0.099-0.009-0.215-0.047-0.27-0.103c-0.197-0.197-0.288-0.286,4.34-6.66c-1.927,2.207-2.675,2.961-3.106,2.977    c-0.118-0.01-0.21-0.035-0.283-0.108c-0.311-0.311-0.131-0.641,2.804-4.081c0.346-0.405,0.733-0.859,1.102-1.299    c-1.647,1.645-4.018,4.109-5.697,5.883c-0.054,0.056-0.147,0.086-0.206,0.089c-0.075,0-0.147-0.03-0.2-0.083    c-0.054-0.054-0.099-0.169-0.098-0.245c0-0.056,0.016-0.121,0.052-0.199l-0.5,0.5c-0.11,0.11-0.289,0.111-0.4,0    c-0.092-0.091-0.142-0.141,0.007-0.394l-0.008-0.008l0.031-0.031c0.186-0.302,0.619-0.865,1.507-2.019    c1.346-1.749,4.037-5.246,5.359-7.206c-1.992,1.977-6.041,6.051-8.962,9.001c-0.053,0.053-0.125,0.083-0.201,0.084h0    c-0.075,0-0.147-0.03-0.2-0.083c-0.3-0.3-0.143-0.57,2.901-4.012c0.745-0.843,1.692-1.914,2.43-2.801    c-1.498,1.49-3.754,3.829-5.336,5.494c-0.054,0.056-0.139,0.097-0.206,0.088c-0.075,0-0.147-0.03-0.2-0.083    c-0.176-0.175-0.235-0.235,1.965-3.897c-0.658,0.659-1.403,1.406-2.013,2.018c-0.108,0.107-0.283,0.11-0.395,0.007    c-0.112-0.105-0.12-0.279-0.019-0.394c0.429-0.488,0.881-1.024,1.263-1.5c-0.029-0.014-0.056-0.032-0.081-0.056    c-0.11-0.111-0.11-0.291,0-0.401l1.082-1.082c0.053-0.053,0.125-0.083,0.201-0.083l0,0c0.075,0,0.147,0.03,0.201,0.083    c0.06,0.06,0.122,0.122,0.097,0.273c0.444-0.44,0.695-0.685,0.846-0.82c0.006-0.01,0.013-0.021,0.019-0.031l0.009,0.006    c0.161-0.142,0.189-0.142,0.233-0.143l0,0c0.103,0,0.197,0.055,0.247,0.145s0.048,0.199-0.005,0.286    c-0.644,1.062-1.507,2.501-2.172,3.637c5.283-5.515,5.556-5.518,5.692-5.52c0.001,0,0.002,0,0.003,0    c0.076,0,0.157,0.033,0.21,0.086c0.342,0.342-0.043,0.954-2.714,4.002c5.94-5.98,6-5.981,6.134-5.981l0,0    c0.075,0,0.148,0.03,0.201,0.083c0.316,0.316,0.223,0.834-5.206,7.927l6.356-6.356c0.109-0.11,0.291-0.11,0.4,0    c0.053,0.053,0.115,0.146,0.114,0.29c-0.002,0.249-0.247,0.648-0.75,1.242c0.296,0.297,0.134,0.59-2.665,3.871    c-0.647,0.758-1.431,1.677-2,2.39c0.661-0.69,1.502-1.66,2.149-2.404c1.95-2.246,2.348-2.643,2.657-2.654    c0.076-0.011,0.189,0.039,0.244,0.095c0.099,0.099,0.111,0.255,0.028,0.368c-2.038,2.785-4.886,6.725-6.152,8.575    c1.374-1.256,4-4.062,6.369-6.748c0.052-0.059,0.126-0.093,0.204-0.096c0.087,0.007,0.154,0.027,0.209,0.083    c0.153,0.153,0.435,0.435-2.073,3.833c0.659-0.712,1.16-1.242,1.547-1.633c1.03-1.149,1.435-1.505,1.701-1.515    c0.11,0.001,0.198,0.042,0.254,0.098c0.053,0.054,0.087,0.139,0.086,0.214c0,0.105-0.064,0.245-0.435,0.659    c-0.152,0.401-0.793,1.281-2.577,3.653c-0.938,1.246-2.263,3.008-3.143,4.308c1.84-2.055,4.308-4.681,4.913-4.702    c0.079-0.014,0.216,0.047,0.271,0.103c0.059,0.059,0.087,0.137,0.083,0.213c0.843-0.853,1.686-1.707,2.424-2.457    c0.104-0.104,0.27-0.113,0.382-0.021c0.113,0.093,0.138,0.257,0.055,0.378l-5.311,7.857l1.516-1.52    c2.07-2.074,3.019-3.024,3.486-3.427c0.039-0.054,0.078-0.107,0.118-0.161l0.041,0.03c0.252-0.194,0.304-0.146,0.385-0.066    c0.102,0.098,0.115,0.257,0.031,0.371c-1.749,2.39-4.048,5.548-5.611,7.729l7.54-7.541c0.109-0.11,0.291-0.11,0.4,0    c0.344,0.344,0.21,1.112-4.091,6.411c0.369-0.338,0.75-0.687,1.144-1.045c0.055-0.05,0.109-0.1,0.164-0.15    c2.889-2.98,2.944-2.98,3.126-2.982c0.095,0.019,0.154,0.031,0.208,0.084c0.055,0.055,0.092,0.149,0.09,0.227    c-0.002,0.086-0.039,0.182-0.169,0.347c0.07-0.026,0.134-0.041,0.188-0.042c0.168,0,0.275,0.064,0.334,0.124    c0.909,0.908-1.918,4.166-8.599,11.123c-1.327,1.382-2.689,2.8-3.26,3.486c1.5-0.931,6.591-6.39,11.109-11.708    c0.051-0.06,0.125-0.096,0.204-0.1c0.069-0.004,0.156,0.026,0.212,0.083c0.073,0.074,0.161,0.207,0.16,0.423    c-0.002,0.381-0.351,1.03-0.918,1.837c0.784-0.773,0.901-0.839,1.026-0.82c0.075,0,0.154,0.032,0.208,0.084    c0.109,0.109,0.111,0.285,0.005,0.396l-0.105,0.111c0.019,0.014,0.034,0.027,0.047,0.041c0.065,0.065,0.144,0.182,0.142,0.365    c-0.002,0.173-0.087,0.394-0.249,0.663l0.507-0.506c0.109-0.111,0.291-0.111,0.4,0c0.561,0.56-0.562,1.999-3.671,5.665    c-1.108,1.309-2.629,3.102-3.344,4.187l4.502-4.501c0.109-0.111,0.291-0.111,0.4,0c0.241,0.24,0.183,0.429-1.511,2.574    c0.307-0.286,0.584-0.526,0.815-0.698c0.043-0.038,0.086-0.076,0.128-0.113c1.366-1.342,1.538-1.345,1.624-1.347    c0.102-0.004,0.168,0.035,0.222,0.089c0.056,0.056,0.086,0.132,0.083,0.211s-0.039,0.152-0.099,0.204    c-0.341,0.293-0.684,0.591-1.023,0.89c0.016,0.042,0.021,0.09,0.008,0.148c0.959-1.016,1.243-1.237,1.446-1.242    c0.002,0,0.004,0,0.005,0c0.077,0,0.17,0.037,0.224,0.091c0.164,0.164,0.359,0.359-2.271,3.807    c0.362-0.386,0.73-0.782,1.089-1.172c0.054-0.059,0.119-0.089,0.209-0.092c0.075,0,0.147,0.029,0.2,0.083    c0.3,0.3,0.091,0.942-1.668,3.811v0.09l-0.145,0.145l0.145-0.145l0.18,0.218c-0.092,0.082-0.95,0.953-0.95,0.953    C57.608,62.666,57.535,62.694,57.462,62.694z M59.712,48.728l-7.911,8.312c0.707-0.722,1.641-1.628,2.821-2.762    c2.015-1.936,5.018-4.819,5.209-5.597C59.796,48.69,59.756,48.706,59.712,48.728z" style="fill:#CCCCCC;"/><path d="M45.572,32.736c-0.078,0-0.184-0.041-0.238-0.094c-0.095-0.095-0.156-0.156,0.042-0.464    c-0.066-0.016-0.136-0.05-0.175-0.088c-0.3-0.3-0.069-0.793,1.652-3.515c0.281-0.445,0.607-0.96,0.89-1.428    c-1.657,1.709-1.746,1.71-1.869,1.712c-0.079,0.028-0.153-0.03-0.208-0.084c-0.081-0.081-0.105-0.203-0.062-0.309    c0.396-0.958,0.947-2.31,1.312-3.238c-0.09,0.017-0.191-0.01-0.257-0.077c-0.15-0.15-0.144-0.163,0.185-0.804    c0.895-1.743,1.389-2.806,1.646-3.446c-2.966,3.271-3.316,3.281-3.437,3.284c-0.078-0.01-0.18-0.037-0.235-0.092    c-0.141-0.14-0.189-0.188,0.386-0.851c-0.004-0.035-0.002-0.071,0.006-0.105l0.375-1.471c-0.485,0.486-1.171,1.199-1.805,1.873    c-0.104,0.11-0.275,0.118-0.389,0.022c-0.115-0.097-0.134-0.267-0.044-0.387l1.731-2.296c-0.063-0.161-0.032-0.671,0.289-3.358    c-0.372,0.376-0.899,0.966-1.293,1.406c-1.234,1.379-1.355,1.48-1.553,1.486c-0.066,0.003-0.165-0.032-0.22-0.087    c-0.25-0.25-0.112-0.576,1.131-2.684c0.2-0.339,0.437-0.741,0.628-1.081c-0.011-0.006-0.021-0.013-0.031-0.021    c-0.113-0.087-0.144-0.244-0.072-0.367c0.336-0.576,0.688-1.188,0.981-1.707c-0.9,0.895-2.234,2.292-3.45,3.601    c-0.053,0.059-0.127,0.093-0.208,0.091c-0.075,0-0.147-0.03-0.2-0.083c-0.144-0.143-0.454-0.453,1.418-2.961    c-0.068,0.04-0.081,0.039-0.132,0.039c-0.075,0-0.152-0.031-0.206-0.084c-0.091-0.092-0.206-0.206,0.056-0.715l-1.03,1.03    c-0.11,0.11-0.29,0.11-0.401,0c-0.284-0.285-0.074-0.698,1.872-3.687c0.343-0.526,0.742-1.14,1.082-1.684l-3.426,3.426    c-0.086,0.087-0.216,0.106-0.321,0.056c-0.557,0.583-0.744,0.707-0.909,0.711c-0.08-0.014-0.175-0.035-0.23-0.09    c-0.105-0.106-0.111-0.275-0.012-0.388c0.593-0.672,1.27-1.443,1.945-2.215c-0.07-0.005-0.14-0.036-0.189-0.084    c-0.16-0.161-0.388-0.389,1.905-3.675c-0.263,0.286-0.516,0.563-0.733,0.802c-1.499,1.647-1.522,1.647-1.702,1.652    c-0.077-0.003-0.159-0.031-0.213-0.085c-0.07-0.07-0.099-0.171-0.075-0.267l1.007-4.156c-0.657,0.656-1.643,1.645-2.39,2.393    c-0.109,0.112-0.289,0.111-0.401,0c-0.111-0.11-0.111-0.29,0-0.401c3.176-3.185,3.176-3.185,3.303-3.185l0,0    c0.087,0,0.169,0.04,0.223,0.108s0.073,0.158,0.053,0.242l-1.013,4.178c0.243-0.262,0.523-0.57,0.789-0.861    c2.182-2.397,2.757-2.95,3.077-2.957c0.098,0.008,0.184,0.039,0.239,0.094c0.099,0.099,0.111,0.255,0.027,0.368    c-1.155,1.569-2.349,3.284-3.039,4.387c0.771-0.771,1.875-1.914,2.89-2.986c0.053-0.057,0.113-0.095,0.206-0.089    c0.075,0,0.147,0.03,0.2,0.083c0.08,0.079,0.136,0.135-0.007,0.383l0.013,0.012c-0.019,0.02-0.038,0.04-0.057,0.06    c-0.079,0.124-0.198,0.288-0.373,0.509c0.021-0.004,0.035-0.006,0.062-0.007c0.078,0,0.196,0.045,0.25,0.099    c0.072,0.072,0.125,0.125,0.11,0.223c0.009,0.007,0.018,0.015,0.026,0.023c0.268,0.268,0.155,0.561-1.843,3.63    c-0.358,0.55-0.778,1.195-1.13,1.76l2.686-2.686c0.107-0.109,0.281-0.112,0.393-0.008c0.112,0.103,0.122,0.276,0.023,0.392    c-0.5,0.588-1.022,1.234-1.458,1.805c0.805-0.816,1.792-1.841,2.521-2.607c0.106-0.112,0.282-0.118,0.396-0.014    c0.114,0.104,0.124,0.28,0.022,0.396c-1.653,1.893-3.34,3.974-4.288,5.329c3.192-3.384,3.443-3.39,3.57-3.392    c0.084,0.01,0.165,0.033,0.219,0.087c0.178,0.18,0.208,0.209-1.177,2.595c0.195,0.227,0.04,0.523-0.99,2.269    c-0.162,0.275-0.354,0.601-0.535,0.916c0.09-0.101,0.18-0.201,0.266-0.297c1.456-1.627,1.78-1.936,2.042-1.942    c0.053-0.028,0.179,0.036,0.234,0.092c0.062,0.062,0.091,0.148,0.081,0.234c-0.117,0.965-0.28,2.383-0.357,3.186l0.152-0.202    c0.099-0.155,0.158-0.229,0.291-0.244c0.082-0.006,0.174,0.021,0.235,0.083c0.1,0.1,0.111,0.258,0.026,0.371l-0.086,0.114    c-0.008,0.013-0.016,0.026-0.025,0.041c-0.058,0.092-0.114,0.181-0.169,0.262c0.004,0,0.007,0,0.011,0    c0.075,0,0.153,0.032,0.206,0.085c0.07,0.071,0.098,0.173,0.074,0.27l-0.361,1.419c0.009-0.013,0.019-0.026,0.027-0.038    c0.405-0.552,0.594-0.797,0.836-0.816c0.075-0.009,0.188,0.032,0.25,0.085c0.535-0.569,1.11-1.199,1.656-1.811    c0.052-0.058,0.125-0.092,0.204-0.094c0.067,0,0.153,0.027,0.208,0.083c0.244,0.244,0.274,0.706-1.515,4.243    c0.038,0.014,0.073,0.036,0.103,0.066c0.157,0.157,0.188,0.187-1.148,3.437c0.534-0.539,1.227-1.254,1.87-1.927    c0.053-0.055,0.125-0.087,0.202-0.088c0.001,0,0.002,0,0.003,0c0.075,0,0.147,0.03,0.201,0.083    c0.287,0.287,0.081,0.724-1.573,3.34c-0.466,0.738-1.101,1.742-1.438,2.377c0.474-0.433,1.204-1.195,1.988-2.059    c0.406-0.461,0.872-0.989,1.406-1.593c0.104-0.117,0.281-0.127,0.399-0.026c0.099,0.087,0.124,0.228,0.067,0.34    c0.297-0.327,0.595-0.657,0.886-0.983c0.105-0.116,0.284-0.126,0.4-0.022c0.117,0.104,0.127,0.283,0.023,0.4    c-2.202,2.466-4.941,5.409-5.486,5.424C45.576,32.736,45.574,32.736,45.572,32.736z" style="fill:#CCCCCC;"/></g></g><g id="Your_Icon"><path d="M83.695,89.393c-0.34-0.068-0.769-0.146-1.231-0.227c-1.166-0.206-2.618-0.462-3.289-0.748   c-3.937-1.675-4.194-4.966-4.521-9.132l-0.02-0.231c-0.095-1.199-0.136-2.438-0.177-3.636c-0.065-1.933-0.134-3.931-0.422-5.874   c-0.392-2.652-1.163-4.234-4.112-5.004c-1.138-0.297-2.287-0.678-3.398-1.045c-1.989-0.656-4.047-1.335-6.184-1.602   c-0.703-0.086-1.406-0.207-1.93-0.475c0.369-0.746,0.854-2.436,1.588-6.258l0.029-0.153c1.119-5.697,1.531-12.973-2.862-15.285   c-1.778-0.936-2.433-1.712-3.604-3.391c-0.223-0.317-0.408-0.563-0.564-0.771c-0.555-0.733-0.669-0.887-0.814-2.21   c-0.785-7.094-3.863-13.206-6.838-19.117c-0.402-0.8-0.497-1.954-0.279-3.432c0.14-0.949,0.171-2.295,0.071-3.062   c-0.055-0.425-0.846-1.444-1.162-1.636c-0.136-0.081-0.283-0.179-0.437-0.281C42.956,5.438,42.294,5,41.68,5   c-0.281,0-0.527,0.088-0.727,0.258c-0.725-0.041-1.183,0.139-1.448,0.527c-0.423,0.619-0.095,1.46,0.194,2.201   c0.086,0.222,0.169,0.43,0.214,0.604c0.138,0.543-0.017,1.064-0.18,1.617c-0.163,0.552-0.332,1.122-0.222,1.747   c0.24,1.364,0.849,2.111,1.682,3.02c0.66,0.718,1.011,1.639,1.384,2.614l0.136,0.356c0.449,1.158,0.738,2.387,1.018,3.575   c0.369,1.57,0.751,3.193,1.507,4.717c0.634,1.277,0.786,2.521,0.962,3.959c0.005,0.045,0.011,0.089,0.017,0.134   c-0.027-0.039-0.056-0.082-0.087-0.13c-0.174-0.268-0.437-0.671-0.987-0.671l-0.178,0.015c-0.29,0.046-0.495,0.259-0.755,0.529   c-0.48,0.498-1.206,1.252-2.7,1.424c-2.833,0.325-3.237,2.576-3.626,4.754c-0.419,2.347,0.406,4.479,2.454,6.339   c0.18,0.163,0.36,0.296,0.54,0.415c-0.042,0.157-0.07,0.319-0.07,0.488c0,1.186,1.113,2.146,2.485,2.146   c1.274,0,2.312-0.83,2.457-1.896c0.266,0.048,0.538,0.116,0.824,0.244c0.336,0.15,0.598,0.481,0.816,0.903   c0.073,0.157,0.124,0.249,0.14,0.276c0.389,0.908,0.606,2.152,0.793,3.234c0.142,0.819,0.275,1.593,0.47,2.158   c0.851,2.465,0.768,5.627-1.335,7.139c-0.66,0.476-1.269,0.841-1.858,1.195c-1.814,1.09-3.247,1.949-4.048,4.772   c-0.633,2.229-2.479,4.185-4.263,6.071c-0.659,0.697-1.282,1.357-1.847,2.037c-1.238,1.487-2.132,2.562-3.87,3.328   c-3.092,1.363-6.3,2.918-8.559,5.562c-0.806,0.941-1.464,1.982-2.1,2.988c-0.52,0.822-1.057,1.67-1.661,2.44   c-0.377,0.479-0.896,0.978-1.445,1.501c-1.254,1.2-2.674,2.561-2.873,4.241c-0.081,0.685,0.075,1.261,0.462,1.718   c0.899,1.059,2.821,1.145,4.224,1.207c0.284,0.014,0.546,0.024,0.771,0.043l0.356,0.037C21.307,94.9,22.245,95,23.161,95   c1.5,0,2.384-0.264,2.785-0.827c0.167-0.235,0.324-0.64,0.121-1.218c-0.385-1.096-1.546-1.297-2.57-1.475   c-0.676-0.116-1.374-0.237-1.618-0.592c-0.128-0.188-0.154-0.48-0.077-0.873c0.324-1.647,2.143-2.69,3.747-3.613   c0.587-0.336,1.142-0.654,1.621-0.994c0.745-0.528,1.44-1.217,2.113-1.881c0.968-0.957,1.969-1.945,3.088-2.424   c0.783-0.336,1.59-0.58,2.369-0.818c1.069-0.326,2.174-0.662,3.271-1.238c3.271-1.717,5.931-4.072,8.375-6.336l0.462-0.434   c1.539-1.448,3.035-2.776,4.917-2.387l0.828,0.176c3.971,0.84,7.702,1.619,11.881,1.531c2.953-0.074,3.025,0.311,3.148,2.127   c0.037,0.562,0.085,1.26,0.238,2.057c0.344,1.768,0.988,3.439,1.613,5.057c0.74,1.924,1.508,3.911,1.732,6.014   c0.036,0.342,0.018,0.787-0.005,1.258c-0.056,1.257-0.125,2.82,0.864,3.672c0.461,0.396,1.103,0.588,1.965,0.588   c0.744,0,1.547-0.143,2.253-0.27c0.446-0.08,0.87-0.154,1.188-0.176c1.084-0.074,2.196,0.02,3.278,0.109   c0.993,0.083,2.056,0.165,3.04,0.132c0.939-0.022,1.284-0.579,1.294-1.092C85.104,90.281,84.363,89.43,83.695,89.393z    M57.662,61.109c-0.051-0.021-0.1-0.041-0.161-0.067c0.043-0.024,0.101-0.046,0.181-0.046L57.662,61.109z M59.002,54.973   c-0.908,4.719-1.391,5.817-1.529,6.057c-1.205-0.521-4.431-1.975-5.793-3.203c-0.947-0.852-1.562-1.281-1.93-1.504   c0.764-1.803,0.669-4.029,0.051-5.925c0.948,0.015,3.094,0.084,5.776,0.396c2.229,0.258,3.446,0.016,4.062-0.215   c-0.133,1.538-0.367,3.015-0.605,4.234L59.002,54.973z M50.384,68.857c-0.041,0.007-0.08,0.015-0.119,0.021l0.058-0.039   L50.384,68.857z M46.148,25.785c-0.703-1.418-1.055-2.914-1.428-4.497c-0.288-1.223-0.585-2.486-1.059-3.71l-0.135-0.352   c-0.39-1.021-0.793-2.078-1.585-2.94c-0.76-0.828-1.236-1.41-1.429-2.507c-0.068-0.39,0.054-0.804,0.195-1.282   c0.186-0.63,0.397-1.343,0.189-2.157c-0.053-0.207-0.148-0.458-0.251-0.723c-0.137-0.352-0.422-1.082-0.302-1.259   c0.023-0.032,0.268-0.127,0.755-0.068l0.303,0.034l0.173-0.251c0.034-0.049,0.052-0.057,0.104-0.057   c0.309,0,0.879,0.379,1.296,0.656c0.168,0.11,0.328,0.218,0.459,0.295c0.16,0.124,0.64,0.771,0.693,0.904   c0.088,0.679,0.057,1.928-0.069,2.784c-0.249,1.688-0.122,3.047,0.377,4.037c2.936,5.831,5.971,11.86,6.735,18.772   c0.17,1.533,0.365,1.849,1.017,2.71c0.149,0.199,0.328,0.436,0.541,0.74c0.846,1.211,1.472,2.008,2.396,2.72   c0.051,0.611,0.111,1.531,0.111,2.43c0,1.525-0.846,2.966-2.541,3.982c-1.221,0.731-2.798,0.921-3.595,0.971   c-0.167-0.847-0.379-1.672-0.696-2.367l0,0c0,0-0.001-0.003-0.002-0.003c-0.042-0.093-0.083-0.186-0.13-0.272   c-0.167-0.386-0.45-1.186-0.579-2.447c-0.14-1.365-0.083-3.386-0.037-5.009c0.021-0.72,0.039-1.374,0.039-1.887   c0-1.07-0.16-2.486-0.285-3.427l0,0l-0.005-0.038c-0.028-0.208-0.053-0.389-0.075-0.538c-0.044-0.327-0.083-0.646-0.123-0.958   C47.029,28.605,46.859,27.219,46.148,25.785z M44.941,30.778c0.088-0.092,0.196-0.203,0.184-0.234   c0.038,0.034,0.106,0.14,0.152,0.21c0.182,0.28,0.488,0.699,1.104,0.829c0.124,0.908,0.298,2.385,0.298,3.45   c0,0.505-0.018,1.149-0.038,1.857c-0.009,0.324-0.018,0.666-0.027,1.014c-0.442,0.012-1.092-0.015-1.625-0.225   c-0.896-0.354-1.033-0.218-1.033-1.006c0-0.787,0.191-0.978,0.544-1.304c0.353-0.326,1.005-0.814-0.055-0.896   c-1.06-0.081-1.793-0.325-2.01-0.733c-0.133-0.249-0.357-0.854-0.511-1.285C43.58,32.174,44.46,31.277,44.941,30.778z    M37.539,78.146c-1.012,0.531-2.023,0.84-3.095,1.166c-0.805,0.246-1.638,0.5-2.473,0.855c-1.295,0.555-2.367,1.611-3.402,2.635   c-0.673,0.666-1.31,1.295-1.987,1.775c-0.439,0.312-0.973,0.617-1.538,0.941c-1.792,1.029-3.825,2.195-4.239,4.299   c-0.132,0.671-0.052,1.226,0.237,1.646c0.486,0.707,1.399,0.864,2.282,1.019c0.965,0.168,1.61,0.313,1.785,0.811   c0.071,0.202,0.023,0.27,0.008,0.292c-0.047,0.065-0.363,0.397-1.955,0.397c-0.861,0-1.766-0.096-2.306-0.152l-0.379-0.039   c-0.236-0.02-0.512-0.032-0.811-0.046c-1.148-0.052-2.882-0.129-3.495-0.851c-0.2-0.235-0.275-0.543-0.228-0.939   c0.156-1.318,1.38-2.491,2.566-3.625c0.576-0.553,1.12-1.072,1.542-1.607c0.636-0.812,1.188-1.684,1.721-2.525   c0.618-0.977,1.256-1.985,2.014-2.871c2.12-2.482,5.212-3.977,8.196-5.292c1.956-0.863,2.964-2.075,4.256-3.628   c0.529-0.637,1.141-1.284,1.789-1.971c0.318-0.336,0.643-0.683,0.966-1.035c0.732,0.471,2.298,1.423,3.79,1.981   c1.191,0.447,1.927,0.851,2.34,1.11C42.884,74.543,40.45,76.618,37.539,78.146z M83.766,91.146   c-0.966,0.039-1.961-0.045-2.927-0.127c-1.116-0.093-2.282-0.188-3.43-0.111c-0.375,0.025-0.824,0.105-1.3,0.189   c-0.666,0.118-1.42,0.254-2.075,0.254c-0.607,0-1.034-0.112-1.302-0.343c-0.615-0.528-0.561-1.765-0.512-2.854   c0.022-0.512,0.045-0.994,0-1.41c-0.238-2.235-1.031-4.287-1.796-6.271c-0.608-1.576-1.237-3.205-1.563-4.885   c-0.143-0.734-0.186-1.371-0.223-1.932c-0.143-2.113-0.351-3.176-4.188-3.074c-2.042,0.045-3.989-0.13-5.922-0.419   c0.633-0.487,1.652-1.404,2.469-2.763c0.92-1.534,1.48-3.19,1.723-3.993c1.18,0.304,2.344,0.678,3.484,1.056   c1.127,0.371,2.292,0.756,3.462,1.062c2.217,0.576,2.97,1.513,3.362,4.17c0.279,1.887,0.347,3.854,0.41,5.759   c0.043,1.21,0.084,2.46,0.182,3.681l0.018,0.231c0.326,4.149,0.635,8.071,5.137,9.987c0.777,0.332,2.23,0.588,3.512,0.813   c0.454,0.08,0.872,0.153,1.275,0.231c0.082,0.004,0.271,0.129,0.404,0.353c0.108,0.181,0.112,0.31,0.102,0.332   C84.068,91.083,84.006,91.143,83.766,91.146z" style="fill:#8C8C8C;"/></g><g id="Top"><path d="M47.975,47.126c0,0,1.399,0.092,2.949-0.456s2.734-1.155,3.312-2.037s0.882-1.276,0.882-2.857   s0.151-3.404,0.151-3.404s0.76,0.607,1.216,0.881s1.61,0.851,2.219,1.581s1.398,2.128,1.672,3.374s0.486,3.525,0.426,4.833   s-0.061,1.186-0.061,1.186s-1.003,0.699-3.344,0.699s-3.92-0.334-5.228-0.364S48.674,50.5,48.674,50.5L47.975,47.126z" style="fill:#848484;"/><g><path d="M55.121,51.693c-0.077,0-0.18-0.04-0.233-0.094c-0.213-0.211-0.213-0.211,3.035-4.81    c0.147-0.208,0.297-0.42,0.446-0.632c-1.898,2.026-3.784,3.913-4.235,3.925c-0.078-0.01-0.195-0.042-0.25-0.097    c-0.153-0.152-0.178-0.33,0.175-0.865c-0.324,0.332-0.504,0.446-0.659,0.453c-0.081-0.01-0.194-0.04-0.25-0.096    c-0.103-0.103-0.111-0.265-0.021-0.378l1.265-1.571l-2.982,2.983c-0.083,0.084-0.21,0.105-0.312,0.06    c-0.426,0.396-0.677,0.553-0.85,0.558c-0.096-0.016-0.203-0.045-0.257-0.1c-0.043-0.043-0.072-0.1-0.081-0.16l-0.396-2.785    c-2.287,2.313-2.3,2.304-2.504,2.105c-0.113-0.108-0.116-0.288-0.007-0.4c0.011-0.012,0.024-0.023,0.037-0.032    c0.164-0.148,1.558-1.552,2.473-2.478c0.077-0.076,0.189-0.104,0.291-0.07c0.103,0.034,0.177,0.123,0.192,0.229l0.424,2.984    c0.675-0.547,2.387-2.472,3.796-4.059c3.105-3.494,4.525-5.026,5.096-5.043c0.11,0,0.208,0.036,0.28,0.107    c0.108,0.108,0.111,0.284,0.006,0.395l-1.479,1.569c0.106,0.101,0.118,0.268,0.025,0.383l-0.217,0.27    c0.141-0.088,0.262-0.133,0.367-0.138c0.137,0.003,0.229,0.037,0.309,0.117c0.235,0.234,0.235,0.234-1.446,2.19    c-0.59,0.686-1.494,1.737-2.117,2.528c1.296-1.223,3.607-3.683,5.676-5.989c0.052-0.058,0.125-0.091,0.202-0.094    c0.067-0.009,0.152,0.026,0.208,0.082c0.078,0.077,0.127,0.125-0.001,0.379l0.013,0.012c-0.016,0.017-0.031,0.035-0.047,0.052    c-0.246,0.453-0.958,1.459-2.705,3.933c-0.667,0.944-1.418,2.007-2.006,2.852c1.156-1.146,2.863-2.963,4.414-4.675    c0.095-0.105,0.254-0.125,0.371-0.043c0.117,0.081,0.156,0.236,0.091,0.362c-0.556,1.09-1.143,2.264-1.56,3.129l1.497-1.497    c0.104-0.106,0.277-0.111,0.39-0.01s0.126,0.271,0.031,0.389l-1.046,1.299c0.054,0.106,0.036,0.24-0.053,0.329l-1.098,1.097    c-0.106,0.106-0.278,0.11-0.39,0.01c-0.033-0.03-0.058-0.066-0.073-0.105c-0.104,0.041-0.223,0.02-0.306-0.062    c-0.153-0.153-0.222-0.221,1.162-2.982c-2.739,2.968-4.313,4.474-4.686,4.483C55.124,51.692,55.122,51.693,55.121,51.693z" style="fill:#939393;"/><path d="M53.95,45.81c-0.075,0-0.147-0.03-0.2-0.083c-0.077-0.077-0.128-0.128,0.028-0.36l-0.036-0.034    c0.276-0.297,0.538-0.579,0.788-0.846c0.139-0.15,0.298-0.319,0.481-0.513c0.186-0.197,0.364-0.386,0.534-0.565    c0.001-0.017,0.004-0.035,0.008-0.052c0.256-1.044,0.513-2.177,0.65-2.895l-0.362,0.362c-0.109,0.11-0.291,0.111-0.4,0    c-0.111-0.11-0.111-0.29,0-0.401l0.935-0.934c0.053-0.053,0.125-0.083,0.2-0.083l0,0c0.075,0,0.147,0.03,0.201,0.083    c0.115,0.116,0.225,0.226-0.437,3.022l2.518-2.518c0.058-0.058,0.112-0.085,0.213-0.083c0.314-0.254,0.394-0.252,0.438-0.251    c0.076,0,0.165,0.035,0.218,0.089c0.054,0.053,0.097,0.164,0.097,0.239c-0.002,0.206-0.211,0.547-1.115,1.498    c0.016,0.083-0.006,0.173-0.067,0.241c-2.576,2.88-2.847,2.887-2.977,2.891c-0.088,0.024-0.171-0.034-0.226-0.089    c-0.028-0.027-0.051-0.066-0.067-0.107c-0.406,0.431-0.815,0.868-1.214,1.297c-0.053,0.057-0.126,0.089-0.203,0.09    C53.954,45.81,53.952,45.81,53.95,45.81z" style="fill:#939393;"/></g><path d="M48.766,55.788c0,0,1.125,0.487,2.553,1.642s3.009,2.005,3.769,2.4s2.917,1.43,3.465,1.581   s3.587,0.668,4.043,0.851s0.273,0.942-0.273,2.371s-1.58,3.435-2.249,4.164s-2.462,2.279-2.462,2.279s-1.976-0.274-3.009-0.518   s-2.888-0.789-3.678-0.638s-2.005,0.517-2.796,1.307s-1.945,1.763-1.945,1.763s-3.162-1.338-4.347-1.915s-2.34-1.276-2.766-1.55   s-0.912-0.882-0.912-0.882s1.307-1.337,1.976-2.34s1.093-1.811,1.459-2.979c0.305-0.973,0.518-1.55,1.065-2.219   c0.654-0.799,1.154-1.277,2.096-1.824s1.641-0.851,2.735-1.732C48.442,56.783,48.766,55.788,48.766,55.788z" style="fill:#848484;"/><g><path d="M41.174,72.833c-0.075,0-0.152-0.031-0.205-0.085c-0.108-0.108-0.111-0.282-0.006-0.394    l0.278-0.298c-0.32,0.266-0.512,0.409-0.614,0.407c-0.076,0-0.164-0.035-0.217-0.089c-0.102-0.102-0.111-0.264-0.021-0.377    l6.644-8.33c-3.52,3.655-6.627,6.749-7.07,6.756c-0.076,0.013-0.172-0.036-0.227-0.091c-0.812-0.812,1.5-3.598,6.599-9.321    c0.873-0.979,1.835-2.061,2.659-3.022c-4.647,4.874-7.191,7.343-7.572,7.349c-0.069,0.007-0.169-0.035-0.223-0.09    c-0.178-0.178-0.237-0.236,1.388-2.606c-0.014-0.009-0.028-0.019-0.041-0.031c-0.115-0.105-0.122-0.285-0.016-0.4    c1.161-1.258,1.234-1.26,1.368-1.263c0.104,0,0.156,0.03,0.21,0.085c0.097,0.097,0.111,0.249,0.032,0.362    c-0.56,0.805-1.15,1.667-1.614,2.361c1.979-1.896,5.909-5.985,8.532-8.768c0.053-0.057,0.135-0.086,0.206-0.089    c0.075,0,0.147,0.029,0.2,0.083c0.45,0.449-0.254,1.407-4.706,6.406c-2.405,2.7-6.305,7.079-6.617,8.31    c1.396-1.116,7.284-7.229,10.96-11.131c0.104-0.112,0.277-0.12,0.392-0.02c0.115,0.1,0.131,0.271,0.036,0.391l-8.664,10.863    c2.937-2.88,8.004-8.111,11.68-11.962c0.107-0.113,0.286-0.118,0.399-0.011s0.119,0.286,0.013,0.399l-1.472,1.573    c0.038-0.037,0.075-0.073,0.113-0.109c0.333-0.333,0.542-0.534,0.678-0.655c0.037-0.036,0.074-0.072,0.11-0.107l0.007,0.007    c0.109-0.086,0.143-0.086,0.188-0.087h0.001c0.115,0,0.22,0.07,0.263,0.178c0.044,0.106,0.019,0.23-0.064,0.311    c-0.223,0.215-0.451,0.435-0.685,0.661c0.025,0.014,0.048,0.03,0.065,0.048c0.012,0.012,0.022,0.023,0.031,0.036l0.971-0.97    c0.109-0.111,0.291-0.111,0.4,0c0.059,0.058,0.127,0.162,0.125,0.327c-0.004,0.247-0.254,0.69-0.681,1.269    c0.087,0.095,0.1,0.235,0.03,0.344c-1.626,2.549-3.274,5.363-3.891,6.732c0.316-0.343,0.713-0.779,1.103-1.208    c3.595-3.958,4.772-5.106,5.252-5.118c0.071-0.009,0.208,0.048,0.263,0.103c0.105,0.104,0.111,0.273,0.015,0.386l-4.742,5.488    c0.791-0.859,1.606-1.769,2.299-2.539c3.133-3.491,3.974-4.37,4.366-4.381c0.001,0,0.003,0,0.005,0    c0.078,0,0.184,0.041,0.237,0.095c0.366,0.366-0.252,1.617-1.843,3.732c0.805-0.801,1.553-1.529,2.113-2.072    c0.096-0.089,0.232-0.103,0.341-0.041c0.67-0.602,1.172-0.975,1.391-0.98c0.076-0.006,0.21,0.047,0.265,0.102    c0.067,0.066,0.144,0.143,0.024,0.412c0.69-0.752,0.729-0.753,0.856-0.756c0.081,0.006,0.155,0.028,0.21,0.083    c0.067,0.067,0.146,0.185,0.141,0.369c-0.014,0.537-0.862,1.504-2.354,2.921c0.12,0.091,0.148,0.259,0.064,0.384    c-0.708,1.06-1.439,2.201-1.963,3.069l0.929-0.928c0.109-0.111,0.291-0.111,0.4,0c0.111,0.11,0.111,0.29,0,0.4l-2.138,2.137    c-0.109,0.111-0.291,0.111-0.4,0c-0.128-0.128-0.259-0.258,0.64-1.778c-1.575,1.736-3.32,3.512-3.886,3.535    c-0.12,0.019-0.223-0.033-0.3-0.111c-0.023-0.022-0.042-0.05-0.056-0.079c-0.191,0.218-0.205,0.223-0.318,0.227    c-0.094-0.001-0.155-0.027-0.21-0.083c-0.053-0.052-0.088-0.117-0.104-0.19c-0.082-0.013-0.154-0.049-0.211-0.105    c-0.11-0.11-0.111-0.289-0.001-0.4c2.417-2.427,5.99-6.125,7.499-7.919c-1.614,1.466-4.858,4.91-7.755,8.145    c-0.052,0.058-0.125,0.092-0.203,0.094c-0.073,0.003-0.153-0.026-0.208-0.083c-0.054-0.054-0.104-0.186-0.104-0.262    c0.002-0.216,0.321-0.69,0.834-1.316c-0.032-0.093-0.016-0.201,0.055-0.28c2.576-2.939,5.186-6.255,5.749-7.479    c-0.741,0.684-2.325,2.448-3.646,3.92c-3.542,3.946-5.28,5.808-5.909,5.824c-0.108-0.004-0.211-0.035-0.285-0.109    c-0.105-0.104-0.111-0.273-0.014-0.386l3.737-4.325c-0.222,0.243-0.43,0.472-0.617,0.679c-1.816,2-1.827,2-2.011,2.005    c-0.09-0.014-0.157-0.031-0.212-0.086c-0.161-0.16-0.565-0.563,2.849-6.113c-3.017,3.362-7.972,8.084-9.302,9.343    c-0.111,0.105-0.285,0.102-0.394-0.004c-0.108-0.107-0.113-0.282-0.009-0.395c0.771-0.836,1.804-1.951,2.932-3.153l-0.43,0.431    c-2.427,2.619-3.673,3.771-4.227,3.786c-0.162,0.029-0.255-0.062-0.312-0.118c-0.007-0.008-0.015-0.016-0.022-0.025    C41.29,72.832,41.238,72.833,41.174,72.833C41.175,72.833,41.175,72.833,41.174,72.833z M42.759,71.471    c-0.114,0.131-0.216,0.252-0.306,0.36c0.23-0.188,0.509-0.441,0.822-0.744c0.007-0.059,0.032-0.116,0.077-0.162l0.91-0.951    C43.639,70.6,43.147,71.089,42.759,71.471z" style="fill:#939393;"/></g><path d="M46.612,37.771c0,0-0.273,3.525,0.03,4.711s0.304,1.854,0.304,1.854s-0.121-0.183-0.577-0.365   s-0.547-0.122-0.547-0.122s-0.146,2.443-3.374,1.702c-2.249-0.517-1.702-2.492-1.702-2.492s-1.215-0.76-2.127-2.34   s-1.307-2.614-0.821-4.955s1.094-3.221,1.854-3.769s1.65-0.604,1.858-0.5s0.421,0.955,0.695,1.563   c0.259,0.577,0.677,1.139,1.489,1.216s1.459,0.243,1.459,0.486s-0.966,0.651-1.094,1.459c-0.091,0.578-0.091,0.851,0.213,1.094   s0.942,0.334,1.368,0.395L46.612,37.771z" style="fill:#6F6F6F;"/><g><path d="M44.354,44.471c-0.073,0-0.145-0.028-0.201-0.083c-0.11-0.111-0.11-0.291,0-0.401l1.835-1.835    c0.111-0.11,0.291-0.11,0.401,0c0.019,0.019,0.035,0.041,0.048,0.066c0.107,0.111,0.106,0.288-0.003,0.397l-0.243,0.244    c-0.147,0.167-0.372,0.394-0.711,0.711c-0.052,0.049-0.117,0.074-0.183,0.076l-0.743,0.743    C44.5,44.443,44.427,44.471,44.354,44.471z" style="fill:#7C7C7C;"/><path d="M43.608,45.54c-0.057,0-0.113-0.016-0.158-0.052c-0.129-0.127-0.286-0.284,0.366-1.387    l-0.784,0.784c-0.097,0.097-0.25,0.109-0.363,0.032c-0.113-0.079-0.152-0.228-0.094-0.352l1.89-4.062l-4.471,4.471    c-0.106,0.106-0.276,0.111-0.389,0.012s-0.127-0.269-0.035-0.387l2.558-3.263l-2.455,2.455c-0.107,0.106-0.278,0.111-0.39,0.01    c-0.112-0.102-0.125-0.272-0.03-0.39c0.867-1.063,1.98-2.445,2.949-3.67l-3.393,3.393c-0.111,0.111-0.29,0.111-0.401,0    c-0.166-0.166-0.493-0.494,3.536-6.894c-4.166,4.343-4.42,4.347-4.551,4.349c-0.079,0.016-0.161-0.032-0.215-0.087    c-0.107-0.106-0.111-0.278-0.01-0.391c0.579-0.639,1.308-1.452,1.977-2.207c-0.065-0.074-0.087-0.176-0.058-0.271    c0.398-1.285,0.932-3.021,1.261-4.119c-0.981,1.007-1.036,0.974-1.143,1c-0.029,0-0.058-0.004-0.085-0.013    c-0.189,0.198-0.378,0.397-0.564,0.593c-0.107,0.113-0.286,0.119-0.399,0.012s-0.12-0.285-0.014-0.399l0.74-0.802l-0.059-0.084    c0.124-0.1,1.229-1.221,1.896-1.904c0.055-0.056,0.128-0.085,0.202-0.085c1.088-1.082,1.194-1.083,1.286-1.084    c0.11-0.009,0.156,0.032,0.21,0.085c0.179,0.177,0.221,0.218-1.235,1.749c-0.057,0.375-0.356,1.356-1.25,4.242    c0.339-0.349,0.754-0.794,1.136-1.217c0.052-0.058,0.126-0.091,0.203-0.093c0.078-0.006,0.153,0.028,0.208,0.083    c0.061,0.061,0.109,0.109,0.081,0.22c0.711-0.739,1.409-1.471,2.001-2.098c0.102-0.106,0.267-0.119,0.381-0.028    c0.115,0.091,0.143,0.254,0.063,0.377c-1.881,2.91-3.856,6.137-4.705,7.775l5.153-5.153c0.053-0.053,0.125-0.083,0.2-0.083l0,0    c0.076,0,0.147,0.03,0.201,0.083c0.165,0.166,0.27,0.271-1.859,2.979l2.054-2.053c0.105-0.106,0.275-0.112,0.388-0.011    c0.112,0.099,0.127,0.269,0.035,0.387l-2.556,3.26l2.284-2.284c0.097-0.098,0.25-0.11,0.363-0.032    c0.113,0.079,0.152,0.228,0.094,0.352l-1.89,4.062l1.789-1.788c0.104-0.105,0.272-0.111,0.385-0.015    c0.112,0.097,0.132,0.264,0.044,0.383c-0.763,1.041-1.585,2.261-1.928,2.897c0.002,0.001,0.003,0.003,0.005,0.004    c0.112,0.11,0.113,0.29,0.003,0.401c-0.026,0.026-0.056,0.046-0.087,0.061c-0.036,0.038-0.079,0.093-0.104,0.124    C43.811,45.493,43.707,45.54,43.608,45.54z" style="fill:#7C7C7C;"/></g></g></svg>