<?xml version="1.0" ?><!DOCTYPE svg  PUBLIC '-//W3C//DTD SVG 1.1//EN'  'http://www.w3.org/Graphics/SVG/1.1/DTD/svg11.dtd'><svg height="100px" style="enable-background:new 0 0 100 100;" version="1.1" viewBox="0 0 100 100" width="100px" xml:space="preserve" xmlns="http://www.w3.org/2000/svg" xmlns:xlink="http://www.w3.org/1999/xlink"><g id="Circle"/><g id="Skin"><g><path d="M50.971,89.401c-0.107,0-0.205-0.06-0.254-0.155c-0.049-0.097-0.038-0.212,0.026-0.299    c0.7-0.929,1.919-2.546,3.047-4.047c-3.626,3.708-3.771,3.71-3.911,3.711c-0.001,0-0.002,0-0.002,0    c-0.075,0-0.153-0.031-0.206-0.084c-0.137-0.137-0.187-0.188,0.594-3.221c-1.342,1.577-1.808,2.017-2.139,2.03    c-0.085-0.003-0.215-0.047-0.271-0.104c-0.101-0.101-0.111-0.261-0.023-0.373l0.706-0.914l-1.887,1.888    c-0.111,0.109-0.288,0.11-0.398,0.003c-0.111-0.108-0.115-0.285-0.008-0.398c0.094-0.099,0.189-0.199,0.284-0.301    c-0.045-0.014-0.086-0.037-0.12-0.071c-0.223-0.223-0.137-0.586,0.561-2.184l-4.213,4.212c-0.103,0.106-0.27,0.111-0.384,0.016    c-0.112-0.096-0.133-0.261-0.047-0.381c0.632-0.882,1.444-2.021,2.154-3.028l-3.562,3.562c-0.053,0.054-0.125,0.083-0.201,0.083    l0,0c-0.075,0-0.147-0.029-0.201-0.083c-0.252-0.252-0.099-0.582,0.792-1.738c-1.088,1.135-1.094,1.136-1.239,1.138    c-0.001,0-0.002,0-0.004,0c-0.075,0-0.148-0.03-0.202-0.084c-0.118-0.118-0.44-0.641-1.073-1.695    c-0.07-0.118-0.135-0.226-0.19-0.316c-0.377,0.375-1.117,1.119-1.646,1.652c-0.109,0.114-0.288,0.112-0.401,0.002    c-0.111-0.11-0.112-0.29-0.001-0.4c1.966-1.983,1.967-1.987,2.106-1.985c0.073,0.001,0.143,0.029,0.195,0.081    c0.04,0.038,0.043,0.042,0.423,0.675c0.23,0.384,0.609,1.015,0.832,1.359c0.227-0.23,0.601-0.62,0.943-0.978    c2.129-2.223,2.172-2.224,2.35-2.225c0.072,0.009,0.155,0.032,0.209,0.086c0.253,0.253,0.083,0.566-0.944,1.878l3.498-3.497    c0.11-0.111,0.29-0.111,0.401,0c0.078,0.077,0.13,0.131-0.001,0.399l0.001,0.001l-0.002,0.003    c-0.171,0.349-0.649,1.059-1.775,2.645L47.55,83.5c0.11-0.11,0.29-0.11,0.399-0.001c0.173,0.171,0.135,0.259-0.338,1.331    c-0.111,0.251-0.261,0.592-0.398,0.921c1.974-2.201,2.282-2.212,2.392-2.216c0.083-0.023,0.186,0.036,0.242,0.092    c0.035,0.036,0.07,0.07,0.087,0.121l1.344-1.344c0.105-0.107,0.276-0.11,0.388-0.013c0.112,0.099,0.128,0.268,0.037,0.386    l-0.929,1.202c0.017-0.003,0.033-0.004,0.05-0.004c0.076,0,0.152,0.031,0.205,0.085c0.021,0.021,0.04,0.046,0.054,0.073    c0.047,0.096,0.035,0.143-0.01,0.316c-0.436,1.671-0.667,2.619-0.789,3.156c0.843-0.803,2.719-2.689,6.047-6.137    c0.177-0.185,0.186-0.231,0.324-0.211c0.072,0,0.142,0.027,0.194,0.076c0.075,0.071,0.122,0.115-0.025,0.375l0.032,0.031    l-0.117,0.122c-0.009,0.009-0.017,0.017-0.024,0.025c-0.315,0.488-1.062,1.479-2.67,3.617l-0.146,0.195    c1.76-1.803,1.843-1.804,1.998-1.806c0.001,0,0.002,0,0.003,0c0.075,0,0.154,0.032,0.207,0.085    c0.241,0.242,0.038,0.519-0.635,1.434c-0.145,0.197-0.341,0.464-0.46,0.645c0.015,0.087-0.012,0.18-0.079,0.247l-0.092,0.092    c-0.053,0.054-0.125,0.083-0.2,0.083c0,0,0,0-0.001,0c-0.075,0-0.147-0.03-0.2-0.084c-0.106-0.106-0.125-0.215-0.049-0.389    c-0.638,0.652-1.333,1.375-1.833,1.896c-1.438,1.497-1.438,1.497-1.583,1.498C50.973,89.401,50.972,89.401,50.971,89.401z" style="fill:#CCCCCC;"/><path d="M78.484,37.432c-0.078,0-0.193-0.043-0.247-0.097c-0.082-0.082-0.106-0.207-0.06-0.313    c0.441-1.02,0.896-2.188,1.117-2.906c-0.23,0.234-0.555,0.57-1.011,1.049c-0.228,0.239-0.241,0.253-0.361,0.255l-0.004-0.283    l0.2-0.2l-0.2,0.2l-0.197-0.204l0.152-0.159c1.601-1.685,1.644-1.685,1.804-1.687c0.091,0.027,0.154,0.03,0.207,0.084    c0.119,0.119,0.355,0.356-0.807,3.177c0.75-0.717,1.977-2.055,3.07-3.325c0.102-0.119,0.283-0.131,0.399-0.03    c0.119,0.102,0.133,0.281,0.03,0.4c-1.577,1.832-3.566,4.019-4.086,4.039C78.49,37.432,78.487,37.432,78.484,37.432z" style="fill:#CCCCCC;"/><path d="M46.354,54.688c-0.077,0-0.168-0.036-0.222-0.09c-0.111-0.11-0.111-0.29,0-0.4    c0.048-0.049,0.11-0.076,0.174-0.082c0.412-0.279,2.286-2.389,4.1-4.43c4.964-5.587,8.854-9.863,10.024-9.897    c0.184-0.008,0.307,0.072,0.372,0.139c0.104,0.104,0.111,0.272,0.016,0.384l-6.425,7.526c8.412-8.51,8.58-8.511,8.709-8.512h0.001    c0.075,0,0.149,0.03,0.203,0.083c0.162,0.163,0.292,0.293-0.944,1.727c0.022,0.012,0.043,0.028,0.062,0.046    c0.018,0.018,0.034,0.034,0.047,0.053l1.193-1.193c0.109-0.111,0.291-0.111,0.4,0c0.034,0.034,0.062,0.083,0.076,0.134    c0.074,0.017,0.161,0.056,0.201,0.096c0.484,0.483-0.37,1.931-3.183,6.035c-0.324,0.473-0.664,0.968-0.967,1.421l9.324-9.325    c0.109-0.111,0.291-0.111,0.4,0c0.062,0.062,0.136,0.174,0.134,0.353c-0.002,0.156-0.086,0.377-0.238,0.65l1.15-1.169    c0.108-0.113,0.288-0.113,0.399-0.005s0.115,0.286,0.008,0.399c-0.101,0.106-0.201,0.211-0.301,0.316    c0.016,0.073,0.001,0.15-0.042,0.214l-5.268,7.858l10.358-10.358c0.105-0.109,0.277-0.112,0.391-0.01    c0.112,0.101,0.125,0.273,0.028,0.39c-1.678,2.048-3.968,4.9-5.57,6.995c3.865-4.073,6.007-6.137,6.377-6.143    c0.001,0,0.002,0,0.004,0c0.076,0,0.169,0.037,0.222,0.09c0.253,0.253,0.118,0.69-0.964,3.115    c-0.252,0.565-0.578,1.296-0.806,1.871c2.923-3.19,8.233-8.871,9.012-8.889c0.093,0.001,0.196,0.043,0.251,0.097    c0.1,0.1,0.111,0.258,0.026,0.371l-5.922,7.886c1.97-1.91,5.277-5.423,7.522-7.873c0.053-0.057,0.126-0.09,0.203-0.092    c0.086,0.009,0.152,0.028,0.207,0.083c0.194,0.195,0.321,0.322-3.626,5.542c0.618-0.666,1.271-1.392,1.816-1.996    c2.574-2.856,3.082-3.36,3.399-3.369c0.071,0.003,0.181,0.037,0.235,0.092c0.073,0.073,0.113,0.174,0.112,0.283    c0,0.003-0.001,0.006-0.001,0.009l3.651-3.651c0.053-0.053,0.125-0.083,0.2-0.083c0,0,0,0,0.001,0c0.075,0,0.147,0.03,0.2,0.084    c0.161,0.163,0.161,0.163-0.676,2.137c-0.285,0.673-0.689,1.626-0.962,2.317c0.629-0.623,1.588-1.625,2.467-2.572    c0.103-0.11,0.271-0.12,0.388-0.027c0.051,0.042,0.084,0.098,0.097,0.159c0.519-0.523,0.558-0.523,0.672-0.524    c0.081,0.007,0.152,0.03,0.205,0.084c0.111,0.11,0.111,0.29,0,0.4c-0.022,0.023-0.049,0.042-0.076,0.055    c-0.17,0.142-0.928,0.926-1.436,1.451c-1.14,1.179-1.14,1.179-1.288,1.18h-0.001c-0.106,0-0.204-0.059-0.252-0.153    c-0.003-0.005-0.005-0.01-0.008-0.015c-1.102,1.112-1.23,1.115-1.325,1.117c-0.077,0.01-0.16-0.031-0.215-0.086    c-0.192-0.193-0.222-0.223,1.213-3.606c0.077-0.182,0.156-0.37,0.233-0.553l-9.575,9.575c-0.109,0.11-0.291,0.11-0.4,0    c-0.024-0.024-0.048-0.064-0.066-0.108c-0.286,0.237-0.477,0.338-0.615,0.342c-0.002,0-0.004,0-0.005,0    c-0.078,0-0.198-0.046-0.252-0.1c-0.101-0.101-0.111-0.26-0.025-0.373c0.979-1.277,2.248-2.958,3.315-4.404    c-2.971,3.173-6.289,6.578-6.861,6.591c-0.092-0.007-0.189-0.041-0.244-0.095c-0.1-0.1-0.111-0.258-0.026-0.371l6.02-8.017    c-2.008,1.922-5.537,5.687-7.908,8.292c-0.053,0.057-0.126,0.091-0.203,0.092c-0.063,0.005-0.153-0.027-0.207-0.083    c-0.268-0.268-0.116-0.761,1.018-3.302c0.302-0.677,0.681-1.526,0.883-2.075c-1.399,1.232-5.415,5.427-7.971,8.162    c-0.054,0.058-0.13,0.104-0.207,0.09c-0.075,0-0.147-0.03-0.2-0.083c-0.187-0.187-0.411-0.411,4.1-6.072l-8.584,8.583    c-0.102,0.103-0.269,0.113-0.38,0.019c-0.113-0.092-0.137-0.255-0.056-0.376l4.909-7.322c-7.014,7.522-8.848,9.129-9.359,9.138    c-0.001,0.001-0.002,0.001-0.003,0.001c-0.05,0-0.116-0.019-0.172-0.046c-0.011,0.002-0.022,0.006-0.029,0.004    c-0.076,0-0.164-0.035-0.217-0.089c-0.055-0.054-0.084-0.127-0.083-0.203c0.001-0.077,0.032-0.149,0.088-0.202    c4.211-4.016,8.509-8.46,10.067-10.546l-9.731,9.731c-0.109,0.111-0.289,0.111-0.4,0c-0.276-0.276-0.094-0.611,1.949-3.593    c1.119-1.633,2.919-4.26,3.188-5.145c-0.053,0.034-0.111,0.075-0.176,0.124c-1.477,1.837-6.312,6.704-10.477,10.822    c-0.108,0.107-0.283,0.111-0.395,0.004c-0.021-0.02-0.038-0.042-0.052-0.065l-1.656,1.656c-0.109,0.111-0.288,0.109-0.399,0.002    c-0.11-0.109-0.112-0.288-0.004-0.399c0.117-0.121,0.236-0.243,0.356-0.367c-0.019-0.012-0.036-0.024-0.051-0.039    c-0.108-0.109-0.11-0.286-0.003-0.396c0.002-0.072,0.031-0.142,0.083-0.193c1.735-1.729,3.886-3.903,5.87-5.949    c-2.538,2.556-5.414,5.472-7.758,7.857c-0.106,0.109-0.281,0.114-0.394,0.011c-0.113-0.104-0.124-0.277-0.024-0.393L59.784,40.65    c-1.772,1.331-6.335,6.465-8.953,9.413c-3.564,4.012-4.149,4.616-4.47,4.626C46.359,54.688,46.356,54.688,46.354,54.688z" style="fill:#CCCCCC;"/><path d="M60.037,39.699c-0.108,0-0.208-0.039-0.279-0.111c-0.111-0.11-0.111-0.29,0-0.401    c0.081-0.083,0.203-0.104,0.306-0.062c0.792-0.248,5.164-4.855,9.008-9.25c0.052-0.059,0.126-0.094,0.204-0.097    c0.109-0.001,0.155,0.028,0.21,0.083c0.041,0.041,0.079,0.079,0.085,0.144c0.039-0.013,0.074-0.021,0.104-0.02    c0.079,0,0.204,0.047,0.258,0.101c0.111,0.111,0.111,0.291,0,0.401c-0.07,0.07-0.169,0.095-0.26,0.077    c-0.202,0.093-0.669,0.511-1.287,1.127c-0.774,0.891-2.023,2.251-4.012,4.354c-0.061,0.064-0.146,0.093-0.228,0.088    c-1.855,1.934-3.561,3.55-4.093,3.567C60.048,39.699,60.042,39.699,60.037,39.699z" style="fill:#CCCCCC;"/><path d="M51.255,84.265c-0.077,0-0.182-0.041-0.235-0.095c-0.175-0.175-0.256-0.255,1.566-2.187    c-0.004-0.076,0.021-0.153,0.078-0.213c0.269-0.279,0.519-0.54,0.752-0.782c-0.027-0.224,0.233-0.661,1.162-2.136    c0.331-0.524,0.779-1.236,1.128-1.837L51.4,81.321c-0.109,0.111-0.289,0.111-0.4,0c-0.055-0.054-0.104-0.188-0.104-0.265    c0.005-0.296,0.6-1.041,1.424-1.934c0.958-1.468,2.221-3.434,3.104-4.867c-2.074,2.166-2.25,2.17-2.363,2.172    c-0.086,0.001-0.161-0.032-0.215-0.087c-0.106-0.105-0.111-0.276-0.012-0.388c0.985-1.114,2.007-2.289,2.9-3.341    c-1.831,2.043-3.829,4.146-4.305,4.16c-0.098-0.015-0.192-0.041-0.247-0.096c-0.545-0.544,1.146-3.006,3.441-5.836    c-0.83,0.872-1.658,1.753-2.345,2.492c-0.054,0.058-0.142,0.087-0.208,0.091c-0.075,0-0.147-0.029-0.201-0.083    c-0.16-0.16-0.438-0.439,2.715-4.974l-2.554,2.553c-0.053,0.054-0.121,0.081-0.191,0.083l-0.574,0.574    c-0.109,0.111-0.291,0.111-0.4,0c-0.567-0.566,0.667-1.989,4.074-5.615c1.288-1.371,3.054-3.25,3.889-4.396l-5.727,5.726    c-0.096,0.097-0.247,0.111-0.36,0.034c-0.112-0.077-0.154-0.224-0.1-0.349l2.421-5.521l-2.027,2.036    c-1.418,1.423-2.227,2.233-2.704,2.679c-0.229,0.233-0.373,0.383-0.395,0.406l-0.036-0.032c-0.24,0.179-0.289,0.128-0.374,0.047    c-0.106-0.105-0.156-0.156,0.036-0.402l-0.017-0.021c0.021-0.019,0.09-0.085,0.199-0.191c0.215-0.238,0.561-0.593,1.096-1.14    c0.084-0.086,0.171-0.176,0.262-0.268c0.002-0.085,0.045-0.208,0.164-0.403c-0.045-0.02-0.085-0.043-0.109-0.067    c-0.081-0.08-0.105-0.201-0.062-0.307l1.889-4.674c-0.738,0.735-1.806,1.851-2.55,2.627c-1.592,1.662-1.592,1.662-1.747,1.664    c-0.075,0.02-0.151-0.029-0.204-0.084c-0.127-0.127-0.257-0.256,0.647-1.529c-1.552,1.549-1.664,1.55-1.761,1.551    c-0.001,0-0.002,0-0.002,0c-0.076,0-0.153-0.031-0.206-0.085c-0.468-0.468,0.621-2.687,3.238-6.603    c-0.815,0.833-1.892,2.03-2.87,3.182c-0.051,0.061-0.125,0.097-0.204,0.1c-0.084-0.004-0.156-0.026-0.212-0.083    c-0.067-0.067-0.148-0.148-0.062-0.399l-0.964,0.965c-0.11,0.109-0.284,0.11-0.395,0.007c-0.031-0.029-0.054-0.064-0.069-0.102    c-0.978,0.941-1.038,0.955-1.142,0.931c-0.075,0-0.153-0.031-0.206-0.085c-0.188-0.188-0.317-0.317,3.697-6.578l-4.232,4.296    c-0.043,0.043-0.097,0.07-0.153,0.08l-0.128,0.128c-0.108,0.108-0.281,0.111-0.392,0.009c-0.112-0.104-0.123-0.275-0.025-0.392    l13.764-16.306c-2.966,2.568-10.14,10.207-14.964,15.524c-0.209,0.23-0.33,0.363-0.35,0.386c-0.001,0.001-0.001,0.002-0.003,0.003    l0,0c-0.105,0.116-0.285,0.124-0.4,0.02s-0.125-0.284-0.02-0.4c0.111-0.122,0.241-0.267,0.389-0.43    c0.985-1.087,2.047-2.259,3.164-3.491c-2.235,1.945-3.999,3.16-4.955,3.202c-0.296,0.015-0.541-0.071-0.72-0.25    c-0.373-0.372-0.473-0.473,15.986-17.435c8.138-8.386,18.198-18.754,19.13-20.334c-0.036-0.008-0.069-0.012-0.14-0.012    c-1.625,0.052-6.212,4.458-11.55,10.16c-1.622,1.789-3.35,3.678-5.109,5.578c-2.795,3.105-5.605,6.296-8.156,9.192    c-8.187,9.295-11.36,12.81-12.204,12.837c-0.107,0.008-0.212-0.035-0.286-0.109c-0.107-0.106-0.111-0.279-0.009-0.392l6.245-6.842    c-2.753,2.513-4.866,4.117-5.804,4.149c-0.294,0.024-0.462-0.102-0.558-0.197c-0.109-0.108-0.111-0.285-0.004-0.396    c0.453-0.473,0.914-0.954,1.381-1.441c-1.605,1.271-2.842,2.018-3.555,2.045c-0.283-0.003-0.496-0.068-0.659-0.23    c-0.107-0.107-0.111-0.281-0.007-0.394l38.11-41.019c-0.002,0-0.004,0-0.006,0c-2.494,0.101-11.683,10.904-19.79,20.437    C41.948,44.347,35.708,51.504,33.518,51.592c-0.318,0.017-0.506-0.113-0.614-0.222c-0.166-0.165-0.268-0.375-0.304-0.626    c-0.795,0.496-1.439,0.775-1.9,0.794c-0.309,0.018-0.558-0.073-0.74-0.257c-0.111-0.11-0.111-0.29,0-0.4    c0.11-0.111,0.29-0.111,0.401,0c0.024,0.024,0.108,0.089,0.316,0.091c0.452-0.019,1.117-0.328,1.957-0.882    c0.05-0.239,0.138-0.504,0.262-0.792c-0.02,0.004-0.039,0.008-0.057,0.01c-0.051,0.059-0.102,0.118-0.152,0.177    c-0.051,0.06-0.125,0.096-0.205,0.099c-0.076-0.007-0.155-0.027-0.211-0.083c-0.088-0.088-0.192-0.249-0.184-0.515    c0.019-0.642,0.076-2.519,16.074-17.792c8.576-9.332,17.925-18.853,20.562-19.075l0.344-0.346    c0.073-0.074,0.178-0.098,0.271-0.075c0.635-0.567,0.994-0.886,1.012-0.902c0.112-0.099,0.285-0.094,0.39,0.013    c0.106,0.107,0.11,0.278,0.009,0.39c-0.264,0.29-0.681,0.749-1.228,1.348c0.003,0.015,0.004,0.028,0.003,0.042    c0,0.032-0.008,0.067-0.022,0.109c0.938-0.708,1.694-1.107,2.231-1.129c0.304-0.017,0.533,0.075,0.716,0.258    c0.108,0.107,0.111,0.281,0.008,0.393L40.037,47.112l32.546-32.893c0.105-0.11,0.28-0.112,0.394-0.009    c0.112,0.104,0.122,0.277,0.022,0.393c-0.156,0.182-0.713,0.829-1.585,1.833c-0.007,0.052-0.03,0.122-0.083,0.219l0.013,0.013    L71.3,16.712c-0.451,0.775-2.439,3.084-9.729,10.866c-5.8,6.45-12.757,13.974-18.279,19.3c-2.911,3.051-5.133,5.373-5.999,6.276    c1.789-0.521,6.854-5.313,12.73-11.39l22.167-24.291c0.104-0.115,0.282-0.125,0.397-0.021c0.116,0.103,0.127,0.28,0.025,0.397    c-0.239,0.275-1.495,1.715-3.404,3.872c2.13-1.905,3.786-3.066,4.699-3.095c0.28-0.011,0.515,0.074,0.688,0.247    c0.456,0.456-0.304,1.532-19.254,21.06c-6.978,7.19-14.842,15.295-15.831,16.717c0.036,0.007,0.079,0.006,0.132,0.007    c1.47-0.064,5.269-3.39,9.927-8.103c8.702-9.621,18.577-20.568,21.629-24.048c0.333-0.395,0.656-0.778,0.97-1.152    c0.051-0.061,0.125-0.098,0.205-0.101c0.071-0.01,0.156,0.027,0.213,0.083c0.061,0.062,0.108,0.109-0.032,0.342l0.048,0.041    c-0.588,0.701-8.009,9.534-15.74,17.955c0.559-0.446,0.969-0.703,1.177-0.708c0.17-0.029,0.241,0.059,0.295,0.111    c0.104,0.104,0.111,0.271,0.017,0.383L48.313,53.353c1.003-0.956,1.104-0.953,1.205-0.942c0.076,0,0.162,0.034,0.215,0.088    c0.095,0.094,0.11,0.242,0.038,0.354c-1.34,2.071-3.266,5.102-4.301,6.835c1.354-1.336,3.628-3.673,5.194-5.301    c0.107-0.11,0.282-0.117,0.396-0.012c0.054,0.049,0.084,0.115,0.09,0.183l0.595-0.594c0.109-0.111,0.288-0.109,0.399-0.002    c0.11,0.11,0.112,0.288,0.004,0.4c-0.216,0.221-0.432,0.444-0.647,0.67c0.036-0.012,0.065-0.021,0.094-0.018    c0.08,0,0.208,0.048,0.262,0.103c0.097,0.097,0.11,0.249,0.033,0.361c-1.854,2.686-3.708,5.687-4.184,6.925    c1.005-0.961,3.35-3.37,4.884-4.968c0.105-0.109,0.28-0.115,0.393-0.016c0.114,0.103,0.127,0.275,0.029,0.393    c-0.756,0.912-1.532,1.872-2.2,2.724c2.604-2.705,2.689-2.706,2.874-2.708c0.108,0.003,0.158,0.032,0.212,0.086    c0.081,0.08,0.105,0.201,0.062,0.307l-2.036,5.039c0.032-0.029,0.065-0.06,0.1-0.092c0.688-0.821,1.858-2.104,3.809-4.134    c0.302-0.333,0.332-0.334,0.436-0.337c0.003-0.001,0.006-0.001,0.009-0.001c0.111,0,0.214,0.066,0.26,0.169    c0.047,0.105,0.025,0.229-0.055,0.312c-0.082,0.086-0.166,0.173-0.251,0.262c-0.12,0.134-0.276,0.312-0.44,0.499    c0.093-0.054,0.211-0.051,0.301,0.011c0.113,0.077,0.155,0.224,0.101,0.349l-2.425,5.529l5.555-5.554    c0.109-0.111,0.289-0.111,0.4,0c0.63,0.629-0.772,2.25-4.368,6.078c-0.463,0.492-0.972,1.033-1.468,1.572    c0.896-0.855,1.888-1.744,2.661-2.426c0.115-0.1,0.29-0.091,0.395,0.019c0.014,0.016,0.025,0.031,0.036,0.049    c0.103,0.097,0.118,0.256,0.034,0.371c-1.466,2.022-2.976,4.214-3.869,5.643c4.975-5.301,5.356-5.308,5.488-5.311    c0.092,0.016,0.172,0.035,0.225,0.09c0.106,0.105,0.111,0.276,0.012,0.389c-3.315,3.736-6.666,7.938-7.189,9.252    c0.372-0.313,0.998-0.937,1.733-1.707c-0.011-0.036-0.017-0.071-0.016-0.102c0.014-0.335,0.859-1.229,2.515-2.658    c2.459-2.52,2.607-2.521,2.723-2.521c0.001,0,0.002,0,0.003,0c0.075,0,0.154,0.032,0.207,0.086    c0.164,0.163,0.321,0.321-1.972,3.065c0.034,0.015,0.066,0.035,0.093,0.062c0.172,0.172,0.293,0.294-2.641,4.854    c0.825-0.808,1.627-1.565,2.185-2.085c0.113-0.105,0.289-0.103,0.397,0.01c0.107,0.111,0.105,0.288-0.004,0.397l-0.207,0.207    c0.004,0.003,0.007,0.006,0.01,0.01c0.301,0.301,0.04,0.862-1.646,3.537c-0.046,0.072-0.093,0.146-0.14,0.222    c0.195-0.219,0.394-0.443,0.581-0.654c2.013-2.271,2.7-2.979,3.084-2.99c0.076-0.015,0.201,0.044,0.257,0.1    c0.109,0.109,0.111,0.287,0.003,0.397l-1.737,1.787c0,0.062-0.021,0.124-0.062,0.176c0.085,0.106,0.083,0.262-0.011,0.366    c-2.332,2.596-5.227,5.692-5.772,5.706C51.259,84.264,51.257,84.265,51.255,84.265z M64.124,23.888L35,53.012    c1.499-0.669,4.212-2.967,7.584-6.211c6.529-6.841,13.635-14.333,19.093-20.173C62.505,25.705,63.32,24.792,64.124,23.888z     M33.159,50.377c-0.004,0.042-0.007,0.084-0.008,0.124c-0.004,0.208,0.045,0.361,0.153,0.469c0.026,0.025,0.076,0.077,0.19,0.056    c1.832-0.073,8.223-7.322,15.022-15.282C42.513,42.147,36.656,47.975,33.159,50.377z M33.707,48.915    c-0.125,0.228-0.23,0.443-0.314,0.643c3.173-2.336,8.238-7.329,13.778-13.196C41.29,42.384,36.014,47.484,33.707,48.915z     M41.979,38.022c-4.56,4.558-8.042,8.347-9.038,10.175l0.801-0.807c0.532-0.615,1.189-1.372,1.949-2.243    c0.81-0.988,1.761-2.069,2.832-3.229C39.588,40.71,40.75,39.399,41.979,38.022z M35.097,46.831    c-0.277,0.367-0.529,0.717-0.751,1.048c4.242-3.295,15.69-15.15,26.144-26.371c-0.113,0.104-0.229,0.21-0.345,0.317    c-0.932,0.859-1.92,1.771-2.949,2.723L35.097,46.831z M48.37,31.789c-0.659,0.718-1.316,1.438-1.974,2.161    c3.167-3.064,6.693-6.368,10.375-9.779l3.248-3.274C56.249,24.356,52.184,28.14,48.37,31.789z M67.845,13.005    c-2.42,1.263-7.476,6.097-13.249,12.13c5.187-4.825,10.06-9.234,12.976-11.854L67.845,13.005z" style="fill:#CCCCCC;"/><path d="M24.937,53.015c-0.075,0-0.147-0.029-0.2-0.083c-0.334-0.334-0.792-0.791,17.763-20.59    c0.992-1.059,1.986-2.116,2.971-3.162L21.962,52.688c-0.111,0.111-0.291,0.111-0.401,0c-0.111-0.11-0.111-0.29,0-0.4    l39.431-39.431c0.108-0.11,0.289-0.11,0.398-0.002c0.111,0.109,0.114,0.287,0.006,0.399c-1.518,1.58-3.114,3.246-4.758,4.967    c3.519-3.287,6.262-5.441,7.445-5.483c0.261-0.015,0.473,0.064,0.628,0.22c0.107,0.107,0.111,0.28,0.009,0.392L42.78,37.323    c11.056-11.3,24.188-24.546,24.99-24.553c0.001,0,0.002,0,0.002,0c0.076,0,0.169,0.037,0.222,0.09c0.111,0.11,0.111,0.29,0,0.401    c-0.054,0.054-0.123,0.081-0.193,0.083c-1.61,0.857-23.209,22.861-37.45,37.561c-0.109,0.111-0.286,0.115-0.398,0.009    c-0.113-0.105-0.12-0.283-0.015-0.397l34.046-37.202c-4.165,0.648-27.146,26.099-38.832,39.603    c-0.052,0.06-0.125,0.095-0.204,0.098C24.944,53.015,24.94,53.015,24.937,53.015z" style="fill:#CCCCCC;"/><path d="M26.555,42.305c-0.076,0-0.16-0.033-0.213-0.087c-0.053-0.052-0.115-0.146-0.113-0.293    c0.009-0.633,2.036-2.817,3.966-4.755c2.676-2.963,3.013-2.973,3.13-2.976c0.065-0.032,0.181,0.037,0.235,0.091    c0.012,0.012,0.023,0.025,0.032,0.039c4.064-4.302,5.708-5.9,6.205-5.908c0.07,0.007,0.196,0.044,0.25,0.099    c0.11,0.11,0.11,0.29,0,0.401c-0.068,0.067-0.16,0.094-0.25,0.079c-0.772,0.352-5.195,5.072-8.14,8.214    c-4.391,4.685-4.827,5.094-5.1,5.098C26.557,42.305,26.556,42.305,26.555,42.305z" style="fill:#CCCCCC;"/><path d="M17.131,58.5c-0.071,0-0.142-0.026-0.197-0.079c-0.111-0.107-0.116-0.284-0.01-0.397    c1.347-1.442,2.731-2.997,3.748-4.218l-2.97,2.97c-0.109,0.109-0.284,0.111-0.396,0.006c-0.112-0.106-0.119-0.281-0.016-0.396    l32-35.581c-4.932,3.972-22.364,22.182-34.174,34.853c-0.054,0.058-0.133,0.078-0.208,0.09c-0.075,0-0.147-0.029-0.201-0.083    c-0.521-0.521,0.642-2.061,6.872-9.035c-3.761,3.943-7.705,7.902-8.401,7.917c-0.001,0-0.003,0-0.004,0    c-0.078,0-0.205-0.048-0.259-0.102c-0.213-0.213-0.399-0.4,8.031-11.44c-0.62,0.681-1.288,1.426-1.927,2.139    c-4.371,4.875-6.312,6.916-7.026,6.936c-0.095,0.001-0.226-0.038-0.304-0.116c-0.453-0.453,0.35-1.643,5.054-7.487    c1.681-2.089,3.692-4.588,4.44-5.773c-0.221,0.189-0.493,0.437-0.808,0.733c0.005,0.078-0.021,0.157-0.08,0.217l-0.001,0.001    c-2.045,2.089-3.686,3.757-5.001,5.087l-6.835,6.954c-0.11,0.11-0.287,0.112-0.398,0.006c-0.112-0.107-0.117-0.284-0.011-0.397    c0.446-0.477,0.961-1.026,1.526-1.625c0.101-0.544,1.235-2.482,7.502-10.826c-2.903,2.863-8.015,8.082-11.735,11.917    c-0.053,0.055-0.125,0.086-0.202,0.086c-0.058,0.015-0.149-0.029-0.202-0.083c-0.286-0.285-0.309-0.309,5.293-7.062    c2.072-2.498,4.689-5.653,6.08-7.471c-1.215,1.212-3.059,3.174-4.648,4.865c-4.627,4.924-5.57,5.855-5.934,5.86    c-0.083-0.018-0.172-0.036-0.227-0.09c-0.171-0.171-0.393-0.394,3.285-5.6c-1.189,1.238-2.269,2.246-2.641,2.258    c-0.093-0.012-0.214-0.047-0.27-0.103c-0.104-0.104-0.111-0.271-0.016-0.383l0.726-0.861c-0.097,0.035-0.209,0.015-0.29-0.059    c-0.114-0.107-0.121-0.286-0.014-0.401c4.192-4.503,4.462-4.508,4.607-4.511c0.092,0.019,0.163,0.033,0.217,0.087    c0.104,0.104,0.111,0.271,0.017,0.383l-2.246,2.663c0.91-0.971,1.932-2.106,2.893-3.213c0.1-0.115,0.273-0.13,0.391-0.036    c0.119,0.095,0.142,0.266,0.052,0.389c-1.842,2.52-4.556,6.337-5.702,8.169c1.12-1.094,3.075-3.174,4.738-4.943    c4.824-5.134,5.879-6.173,6.269-6.179c0.058-0.012,0.175,0.037,0.229,0.092c0.316,0.316,0.412,0.412-7.08,9.443    c-0.754,0.909-1.54,1.856-2.267,2.74c10.323-10.581,10.656-10.584,10.788-10.585c0,0,0.001,0,0.002,0    c0.075,0,0.155,0.032,0.208,0.085c0.101,0.1,0.111,0.258,0.026,0.372c-2.658,3.507-6.528,8.727-8.329,11.386    c4.257-4.488,9.934-10.338,10.607-10.349c0.041-0.012,0.181,0.039,0.236,0.093c0.42,0.421-0.291,1.47-4.754,7.017    c-1.897,2.357-4.42,5.493-4.945,6.551c1.067-0.717,4.209-4.221,6.357-6.618c3.47-3.871,4.398-4.846,4.809-4.857    c0.076-0.012,0.188,0.04,0.244,0.095c0.101,0.101,0.111,0.26,0.024,0.374c-3.383,4.406-8.216,10.796-9.782,13.091    c2.372-1.992,9.265-9.273,13.656-14.056c0.052-0.057,0.125-0.09,0.203-0.091c0.094,0,0.152,0.028,0.207,0.083    c0.374,0.374-0.035,0.985-5.568,7.172c-1.959,2.191-4.385,4.903-5.87,6.751c7.43-7.937,31.838-33.833,33.984-33.871    c0.14-0.035,0.247,0.061,0.3,0.114c0.106,0.106,0.111,0.278,0.011,0.39L22.602,51.328c0.032,0.014,0.062,0.034,0.087,0.06    c0.168,0.168,0.448,0.449-2.168,3.498c0.083,0.11,0.074,0.269-0.027,0.369l-3.163,3.162C17.276,58.473,17.204,58.5,17.131,58.5z" style="fill:#CCCCCC;"/><path d="M10.339,39.104c-0.077,0-0.172-0.038-0.226-0.091c-0.335-0.335,0.054-0.93,1.73-3.132    c0.243-0.319,0.53-0.696,0.801-1.063c-0.007,0.003-0.015,0.006-0.022,0.009c-0.276,0.304-0.345,0.321-0.445,0.325    c-0.076-0.005-0.16-0.028-0.215-0.084c-0.111-0.11-0.111-0.29,0-0.401c0.024-0.024,0.052-0.043,0.081-0.057    c0.061-0.057,0.194-0.202,0.295-0.318c0.036-0.042,0.084-0.072,0.136-0.087c1.209-1.26,1.24-1.26,1.381-1.262    c0.101,0.019,0.151,0.03,0.205,0.083c0.343,0.343-0.054,0.951-1.765,3.198c-0.38,0.499-0.834,1.095-1.181,1.589    c0.896-0.875,2.328-2.392,3.633-3.833c0.105-0.115,0.284-0.125,0.4-0.02c0.116,0.105,0.125,0.284,0.02,0.4    c-4.282,4.73-4.688,4.74-4.822,4.744C10.343,39.104,10.341,39.104,10.339,39.104z" style="fill:#CCCCCC;"/></g></g><g id="Your_Icon"><path d="M94.762,33.472c-0.063-0.131-0.137-0.277-0.197-0.451c-0.11-0.315-0.332-0.56-0.639-0.706   c-0.947-0.45-2.63,0.083-4.419,0.721l-0.431,0.155c-1.609,0.583-3.438,1.242-4.766,0.731c-0.232-0.089-0.479-0.19-0.729-0.293   c-1.555-0.639-3.493-1.434-5.001-0.554c-1.416,0.826-1.618,3.161-1.64,4.172c-1.381,0.241-5.83,1.018-8.154,1.44   c-0.859,0.156-1.504,0.312-2.104,0.458c-1.344,0.325-2.404,0.583-5.199,0.668c-0.226,0.007-0.416,0.022-0.623,0.033   c1.77-1.487,5.003-4.248,6.859-6.105c2.659-2.66,4.621-5.87,5.672-9.284c0.967-3.141,0.991-5.618,0.078-7.794   c-0.729-1.742-2.724-4.014-4.793-4.8c-2.474-0.94-8.322-0.705-10.26,0.413c-0.789,0.455-4.837,2.867-7.079,5.668   c-1.159,1.448-4.293,3.9-7.325,6.271c-2.115,1.654-4.301,3.364-5.854,4.762c-0.973,0.875-1.929,1.717-2.845,2.524   c-2.671,2.353-4.978,4.385-6.46,6.177c-0.744,1.338-1.757,2.877-2.14,3.138c-0.675-0.094-3.865-1.354-4.878-2.368   c-0.666-0.666-2.001-1.412-3.464-1.911c0.002-0.049,0.015-0.095,0.015-0.145c0-2.069-1.718-3.746-3.838-3.746   c-2.12,0-3.837,1.677-3.837,3.746c0,0.225,0.029,0.443,0.068,0.657c-0.996,0.428-1.943,1.021-2.778,1.915   c-1.825,1.956-3.46,5.435-2.886,7.299c0.137,0.445,0.217,0.863,0.288,1.232c0.188,0.979,0.365,1.903,1.52,2.364   c0.467,0.188,0.689,0.659,0.923,1.159c0.265,0.563,0.565,1.203,1.285,1.385c0.352,0.088,0.675,0.098,0.935,0.104   c0.567,0.017,0.686,0.021,0.847,0.56c0.109,0.363,0.176,0.793,0.24,1.209c0.164,1.061,0.333,2.156,1.307,2.295   c0.681,0.097,1.165-0.27,1.486-0.512c0.055-0.041,0.123-0.094,0.176-0.129c0.933,0.608,1.726,1.066,3.083,1.389   c0.643,0.152,1.081,0.25,1.431,0.25c0.44,0,0.74-0.152,1.129-0.543c0.388-0.389,0.594-0.926,0.833-1.549   c0.129-0.338,0.267-0.701,0.452-1.069c0.369-0.739,0.815-1.104,3.528-1.491c2.669-0.381,6.375-1.732,6.531-1.79   c0.074-0.026,0.135-0.074,0.187-0.127c1.467,1.508,3.203,2.923,3.232,2.946c0.784,0.625,2.759,1.578,4.67,2.496   c1.231,0.594,2.394,1.152,2.858,1.455c1.156,0.752,3.42,2.59,4.405,3.574c0.253,0.254,0.623,0.592,1.045,0.979   c1.181,1.08,2.964,2.714,3.411,3.668c0.499,1.066,0.653,4.65,0.755,7.023c0.021,0.502,0.042,0.965,0.062,1.36   c0.164,3.113,0.212,7.322,0.025,7.881c-0.068,0.202-0.351,0.22-1.433,0.185c-0.342-0.012-0.735-0.023-1.184-0.023h-0.221   c-1.849-0.009-2.774-0.003-4.479,1.178c-1.114,0.771-2.953,1.168-4.294,1.457c-0.536,0.115-1.008,0.219-1.357,0.323l-0.227,0.067   c-0.849,0.25-1.582,0.466-1.711,1.104c-0.117,0.575,0.376,1.063,0.82,1.427c0.54,0.442,2.194,0.618,4.705,0.618   c2.396,0,5.572-0.159,9.305-0.401c0.92-0.06,1.566-0.103,1.775-0.103c0.971,0,1.262-0.638,1.598-1.377   c0.223-0.485,0.524-1.149,1.112-1.989C57.887,82.4,58.82,61.716,58.8,61.551c-0.11-0.834-1.961-2.412-5.563-5.217L52.551,55.8   c-0.552-0.434-1.801-1.235-3.314-2.183c1.155-0.374,3.265-1.043,4.895-1.471c2.476-0.651,10.488-3.204,13.272-4.171   c3.052-1.062,10.498-3.54,13.084-4.277c2.802-0.801,4.941-2.571,6.357-3.742c0.821-0.679,1.922-1.253,3.195-1.918   c0.986-0.515,2.009-1.048,3.057-1.709C94.98,35.142,95.309,34.581,94.762,33.472z M44.636,25.009   c3.219-2.518,6.258-4.896,7.492-6.436c0.14-0.174,0.287-0.346,0.438-0.517c0.613,0.733,1.922,2.364,2.467,3.568   c0.426,0.94,0.781,1.649,1.006,2.081c-2.047,2.204-4.382,4.761-5.469,6.257c-1.188,1.633-2.617,3.821-3.891,5.926   c-0.534-0.978-1.751-3.092-2.825-4.137c-1.086-1.057-2.878-2.542-3.67-3.189C41.52,27.447,43.096,26.214,44.636,25.009z    M52.613,57.134c1.363,1.06,4.979,3.875,5.186,4.55c0.107,1.043-1.083,20.633-2.453,22.59c-0.644,0.914-0.969,1.629-1.205,2.149   c-0.348,0.761-0.391,0.787-0.681,0.787c-0.217,0-0.888,0.042-1.84,0.104c-8.191,0.531-12.667,0.533-13.307,0.011   c-0.272-0.224-0.387-0.364-0.435-0.438c0.181-0.115,0.649-0.253,0.973-0.349l0.231-0.069c0.33-0.099,0.775-0.193,1.281-0.302   c1.424-0.308,3.376-0.729,4.656-1.614c1.445-1.001,2.115-1,3.904-0.998h0.222c0.436,0,0.817,0.012,1.15,0.023   c1.223,0.039,2.107,0.068,2.422-0.873c0.326-0.979,0.1-6.854,0.024-8.254c-0.021-0.395-0.04-0.854-0.062-1.352   c-0.146-3.369-0.31-6.252-0.85-7.406c-0.531-1.137-2.33-2.782-3.644-3.985c-0.41-0.376-0.769-0.703-1.013-0.948   c-1.041-1.041-3.347-2.912-4.569-3.705c-0.517-0.338-1.654-0.886-2.97-1.519c-1.686-0.812-3.784-1.821-4.478-2.377   c-1.863-1.489-4.683-4.228-4.863-5.125c-0.055-0.273-0.319-0.454-0.593-0.396c-0.273,0.055-0.45,0.32-0.396,0.593   c0.105,0.528,0.62,1.254,1.285,2.01c-0.759,0.271-3.905,1.356-6.156,1.679c-2.763,0.395-3.685,0.833-4.288,2.038   c-0.2,0.399-0.352,0.795-0.491,1.159c-0.198,0.516-0.369,0.961-0.604,1.197c-0.33,0.33-0.33,0.328-1.614,0.025   c-1.25-0.297-1.945-0.715-2.865-1.318c-0.496-0.322-0.958,0.024-1.234,0.234c-0.294,0.221-0.491,0.354-0.736,0.318   c-0.234-0.033-0.365-0.887-0.453-1.451c-0.069-0.449-0.141-0.914-0.27-1.346c-0.371-1.235-1.154-1.26-1.784-1.277   c-0.233-0.007-0.474-0.014-0.72-0.076c-0.242-0.061-0.392-0.355-0.617-0.835c-0.217-0.463-0.485-1.007-0.988-1.387   c0.629-0.562,1.986-1.589,3.319-1.354c1.812,0.319,3.731,0.213,3.731,0.213s-0.746-2.132,0-2.771   c0.746-0.639,1.28-1.279,2.771-0.213c1.492,1.066,3.625,0.64,4.584,0c0.751-0.5,2.649-2.628,3.44-3.53   c0.519,0.177,0.94,0.284,1.159,0.284c0.253,0,0.927,0,2.908-3.585c0.885-1.062,2.145-2.272,3.63-3.616   c1.006,0.579,3.809,2.356,5.279,4.904c1.331,2.307,1.634,6.169,1.703,8.003l-0.146,0.272c-0.076-0.061-0.167-0.129-0.223-0.178   c-1.401-1.25-1.81-3.471-1.814-3.493c-0.048-0.273-0.31-0.452-0.584-0.409c-0.274,0.048-0.457,0.31-0.409,0.583   c0.019,0.105,0.469,2.584,2.135,4.07c0.881,0.786,4.025,2.731,7.066,4.614c2.481,1.536,4.827,2.986,5.605,3.602L52.613,57.134z    M92.559,35.479c-1.013,0.64-2.015,1.163-2.982,1.669c-1.27,0.662-2.469,1.288-3.371,2.034c-1.354,1.118-3.395,2.807-5.995,3.549   c-2.601,0.743-10.076,3.23-13.136,4.295c-3.03,1.054-10.893,3.542-13.198,4.148c-2.229,0.587-5.334,1.611-5.755,1.751   c-0.416-0.258-0.838-0.521-1.269-0.786c-2.137-1.324-4.485-2.777-5.879-3.73l4.693-8.732c1.494-2.78,3.899-6.615,5.723-9.12   c1.258-1.729,4.295-4.99,6.514-7.37c0.418-0.449,0.777-0.835,1.103-1.187c0.996,0.089,2.935,0.666,5.067,3.463   c2.324,3.045,3.414,5.572,3.812,6.639c-0.281,0.316-0.572,0.625-0.874,0.927c-2.411,2.412-7.208,6.397-7.933,6.997   c-1.576,0.25-2.436,0.682-3.367,1.162c-0.352,0.181-0.718,0.371-1.15,0.56c-2.154,0.943-3.953,4.37-4.027,4.516   c-0.128,0.247-0.032,0.551,0.215,0.679c0.247,0.127,0.552,0.032,0.68-0.215c0.018-0.033,1.709-3.256,3.536-4.057   c0.454-0.198,0.841-0.397,1.209-0.587c1.265-0.651,2.263-1.167,5.349-1.261c2.896-0.089,4.059-0.371,5.403-0.697   c0.583-0.142,1.21-0.293,2.046-0.446c2.771-0.504,8.567-1.512,8.568-1.512c0.248-0.043,0.426-0.264,0.417-0.516   c-0.03-0.828,0.112-3.108,1.137-3.705c1.077-0.631,2.689,0.032,4.109,0.615c0.258,0.106,0.509,0.209,0.749,0.302   c1.688,0.646,3.695-0.082,5.471-0.725l0.428-0.154c0.971-0.347,2.992-1.072,3.645-0.761c0.076,0.037,0.104,0.078,0.122,0.129   c0.075,0.217,0.163,0.4,0.245,0.562C94.07,34.352,94.137,34.483,92.559,35.479z" style="fill:#8C8C8C;"/></g><g id="Top"><path d="M26.05,40.466c0,0-1.321,2.486-2.487,3.536s-1.632,1.866-3.419,1.827s-2.059-0.505-2.992-0.933   s-1.516-0.311-1.982,0.272s-0.194,2.914-0.194,2.914s-0.271,0.156-1.321,0.117s-2.681-0.428-3.458-0.194s-1.943,0.971-2.292,1.36   s-0.389,0.894-0.855,0.661s-1.515-0.699-1.709-2.021s-0.855-2.175-0.505-3.458s0.933-3.07,1.788-4.197s2.059-2.292,2.836-2.759   s1.323-0.542,1.323-0.542s-0.624-1.789,1.008-3.305s3.73-1.399,5.09-0.428s1.493,3.221,1.493,3.221s0.994,0.121,1.887,0.665   s1.515,1.205,2.37,1.671S26.05,40.466,26.05,40.466z" style="fill:#6F6F6F;"/><g><path d="M17.529,44.882c-0.076,0-0.156-0.032-0.21-0.086c-0.091-0.091-0.109-0.231-0.044-0.343    c0.824-1.417,1.665-2.954,2.192-4.023c-1.492,1.746-3.801,4.312-4.513,4.346c-0.122,0.003-0.232-0.035-0.312-0.115    c-0.11-0.111-0.11-0.291,0-0.401c0.085-0.085,0.211-0.106,0.315-0.059c0.579-0.184,3.016-2.83,5.092-5.346    c0.051-0.062,0.125-0.099,0.205-0.103c0.086,0,0.158,0.026,0.214,0.083c0.141,0.141,0.388,0.387-1.653,4.06    c0.09-0.081,0.193-0.172,0.309-0.274l3.512-3.512c0.208-0.218,0.409-0.429,0.598-0.628c0.027-0.029,0.061-0.051,0.097-0.066    l0.521-0.521c0.098-0.099,0.252-0.111,0.364-0.031c0.113,0.079,0.152,0.228,0.093,0.353c-0.892,1.881-1.804,3.941-2.209,5.038    c0.347-0.363,0.788-0.84,1.177-1.261c2.078-2.25,2.366-2.496,2.609-2.5c0.076,0.003,0.169,0.035,0.224,0.089    c0.071,0.071,0.109,0.168,0.107,0.274c-0.005,0.277-0.319,0.668-1.042,1.37c0.001,0.074-0.026,0.149-0.083,0.206l-3.151,3.151    c-0.111,0.111-0.291,0.111-0.401,0c-0.055-0.054-0.106-0.188-0.104-0.265c0-0.009,0.001-0.017,0.001-0.026    c-0.007-0.005-0.014-0.012-0.02-0.018c-0.133-0.133-0.343-0.343,1.402-4.196c-0.564,0.562-1.395,1.3-2.519,2.273    C17.785,44.914,17.615,44.888,17.529,44.882z" style="fill:#7C7C7C;"/><path d="M13.319,48.147c-0.075,0-0.147-0.03-0.201-0.083c-0.508-0.508,0.42-1.742,4.117-6.029    c1.44-1.67,3.328-3.86,3.881-4.825c-0.727,0.657-2.204,2.372-3.436,3.801c-2.939,3.412-4.779,5.485-5.542,5.514    c-0.165-0.001-0.277-0.066-0.338-0.127c-0.208-0.209-0.25-0.251,4.406-5.978l-6.785,6.785c-0.111,0.11-0.29,0.11-0.401,0    c-0.11-0.111-0.11-0.291,0-0.401l10.726-10.727c0.108-0.107,0.279-0.11,0.391-0.01c0.112,0.102,0.125,0.272,0.03,0.39    c-2.361,2.895-5.657,6.959-7.141,8.843c1.114-1.048,2.913-3.136,4.225-4.66c2.654-3.081,3.703-4.246,4.192-4.264    c0.089,0.003,0.218,0.049,0.273,0.104c0.497,0.497-0.417,1.708-4.052,5.924c-1.152,1.335-2.584,2.997-3.417,4.125    c0.635-0.624,0.671-0.592,0.832-0.44c0.114,0.107,0.119,0.287,0.012,0.401c-0.01,0.011-0.021,0.02-0.032,0.029    c-0.099,0.091-0.774,0.773-1.142,1.143C13.439,48.146,13.439,48.146,13.319,48.147L13.319,48.147z" style="fill:#7C7C7C;"/><path d="M4.773,50.474c-0.166,0-0.271-0.07-0.331-0.13c-0.287-0.287-0.293-0.293,3.781-4.566    c2.152-2.258,5.596-5.87,7.484-8.151C11.595,42.015,5.148,48.759,4.369,48.774c-0.062,0.012-0.188-0.041-0.243-0.096    c-0.103-0.103-0.111-0.267-0.019-0.38c3.468-4.24,7.113-8.952,8.505-11.134l-7.304,7.304c-0.111,0.111-0.291,0.111-0.401,0    c-0.211-0.21-0.28-0.28,1.669-2.637c-0.034-0.013-0.065-0.033-0.094-0.059c-0.113-0.107-0.118-0.287-0.01-0.401    c2.814-2.966,2.93-2.968,3.078-2.97c0.071,0.019,0.155,0.03,0.209,0.084c0.197,0.197,0.197,0.197-1.104,1.743    c-0.142,0.168-0.304,0.361-0.48,0.571l5.076-5.076c0.106-0.106,0.295-0.106,0.401,0c0.254,0.253,0.569,0.569-4.303,6.887    c-1.106,1.435-2.237,2.86-3.123,3.967c2.697-2.596,7.568-7.716,10.862-11.261c0.054-0.058,0.129-0.081,0.208-0.091    c0.075,0,0.147,0.03,0.2,0.083c0.606,0.606-1.216,2.839-8.863,10.861c-1.22,1.279-2.468,2.589-3.168,3.369    c2.058-1.548,7.45-7.57,9.943-10.354c2.555-2.853,2.566-2.854,2.757-2.859c0.077-0.008,0.157,0.029,0.212,0.084    c0.053,0.053,0.116,0.147,0.115,0.295c0,0.067-0.023,0.154-0.068,0.257c1.01-1.111,1.419-1.461,1.667-1.47    c0.062-0.005,0.19,0.039,0.247,0.095c0.111,0.11,0.111,0.29,0,0.401c-0.059,0.06-0.134,0.083-0.217,0.083    c-0.439,0.268-2.243,2.349-3.841,4.192c-4.014,4.63-6.938,7.91-8.023,7.949c-0.178,0.002-0.286-0.053-0.361-0.115    c-1.568,1.539-2.613,2.364-3.106,2.378C4.784,50.474,4.779,50.474,4.773,50.474z" style="fill:#7C7C7C;"/><path d="M12.432,37.379c-0.082,0-0.21-0.048-0.265-0.102c-0.063-0.063-0.092-0.152-0.08-0.241    c0.085-0.6,0.17-1.246,0.224-1.713c-0.058,0.064-0.11,0.124-0.149,0.167c-0.254,0.287-0.281,0.317-0.412,0.321    c-0.073,0.005-0.154-0.027-0.21-0.083c-0.054-0.054-0.09-0.146-0.09-0.223c0.002-0.199,0.143-0.38,1.025-1.239    c-0.013-0.082,0.011-0.169,0.071-0.235c1.521-1.667,1.638-1.669,1.773-1.672c0.092-0.015,0.159,0.03,0.214,0.085    c0.054,0.054,0.094,0.157,0.093,0.233c-0.002,0.263-0.302,0.588-1.493,1.74c-0.066,0.064-0.137,0.132-0.208,0.201    c0.018,0.21-0.027,0.689-0.2,1.94c0.481-0.443,1.303-1.377,1.985-2.226c0.099-0.122,0.277-0.142,0.398-0.044    c0.122,0.098,0.142,0.276,0.044,0.398c-0.974,1.213-2.235,2.664-2.712,2.69C12.439,37.378,12.436,37.379,12.432,37.379z" style="fill:#7C7C7C;"/></g><path d="M32.187,34.095c0,0,3.147,1.787,4.624,3.419c1.319,1.458,2.176,2.409,2.566,4.273   c0.254,1.218,0.699,3.886,0.738,4.585s0.032,1.436,0.032,1.436l0.277,0.197c0,0,1.671-3.847,2.526-5.362s3.729-6.755,3.729-6.755   s-1.359-2.804-2.913-4.358s-4.507-3.613-4.507-3.613L32.187,34.095z" style="fill:#848484;"/><g><path d="M40.396,45.476c-0.075,0-0.147-0.03-0.201-0.083c-0.173-0.173-0.249-0.249,1.938-3.701l-2.88,2.88    c-0.106,0.106-0.295,0.106-0.401,0c-0.059-0.059-0.128-0.164-0.128-0.333c0-0.101,0.037-0.23,0.105-0.384    c-0.211,0.149-0.375,0.232-0.479,0.235c-0.064,0.016-0.21-0.046-0.265-0.101c-0.107-0.107-0.111-0.28-0.009-0.392l1.557-1.703    c-0.028-0.011-0.056-0.028-0.08-0.049c-0.118-0.101-0.132-0.277-0.033-0.396c1.192-1.43,2.42-2.988,3.217-4.097    c-0.844,0.847-1.94,1.96-2.793,2.827c-1.202,1.221-1.693,1.72-1.921,1.923c-0.006,0.008-0.012,0.017-0.018,0.024l-0.005-0.004    c-0.139,0.121-0.159,0.094-0.224,0.12c-0.106,0-0.204-0.06-0.252-0.155c-0.048-0.095-0.04-0.21,0.023-0.296    c2.201-3.008,4.51-6.312,5.728-8.255c-2.446,2.704-6.055,6.559-6.768,6.58c-0.107-0.008-0.211-0.047-0.266-0.102    c-0.19-0.19-0.19-0.19,0.64-1.182c3.847-4.594,5.483-6.844,6.081-7.904l-7.549,7.549c-0.099,0.099-0.254,0.11-0.366,0.029    c-0.113-0.082-0.15-0.233-0.087-0.357l2.904-5.772c-0.964,0.968-2.075,1.985-2.75,2.592c-0.074,0.066-0.174,0.087-0.263,0.063    c-0.363,0.362-0.51,0.446-0.641,0.45c-0.105-0.001-0.172-0.035-0.227-0.089c-0.064-0.064-0.094-0.155-0.08-0.244    c0.047-0.304,0.093-0.642,0.123-0.924c-1.681,1.726-1.688,1.726-1.849,1.727c-0.001,0-0.001,0-0.002,0    c-0.075,0-0.149-0.03-0.202-0.083c-0.11-0.11-0.11-0.29,0-0.401c0.021-0.02,0.043-0.036,0.066-0.049    c0.185-0.156,1.147-1.144,1.617-1.626c0.539-0.553,0.539-0.553,0.662-0.554c0.055,0,0.149,0.03,0.203,0.083    c0.082,0.082,0.172,0.172,0.045,1.194c0.42-0.436,1.042-1.13,1.576-1.728c2.138-2.392,2.864-3.139,3.244-3.149    c0.076,0.013,0.197,0.043,0.252,0.098c0.072,0.071,0.109,0.17,0.106,0.277c-0.004,0.171-0.185,0.466-0.477,0.833l-3.011,5.986    l7.028-7.028c0.111-0.111,0.29-0.111,0.401,0c0.401,0.401,0.282,1.342-5.194,7.979c1.55-1.55,3.724-3.895,5.706-6.125    c0.052-0.058,0.125-0.093,0.204-0.095c0.088,0.01,0.153,0.027,0.209,0.083c0.176,0.177,0.523,0.522-4.468,7.523    c3.551-3.606,3.577-3.595,3.733-3.596c0.075,0,0.149,0.031,0.202,0.084c0.105,0.105,0.261,0.26-0.39,1.301    c0.964-0.961,1.747-1.647,2.026-1.655c0.074-0.004,0.198,0.042,0.254,0.098c0.107,0.107,0.111,0.28,0.009,0.392l-0.033,0.036    c0.075,0,0.155,0.02,0.215,0.077c0.111,0.105,0.119,0.28,0.017,0.394c-1.309,1.476-3.753,4.19-5.587,5.993    c-0.211,0.256-0.402,0.494-0.568,0.71l3.551-3.551c0.103-0.103,0.266-0.111,0.378-0.021c0.113,0.091,0.139,0.252,0.061,0.374    c-0.776,1.208-1.854,2.913-2.576,4.097c0.062,0.006,0.124,0.034,0.171,0.082c0.111,0.11,0.111,0.29,0,0.401l-1.009,1.009    C40.544,45.446,40.472,45.476,40.396,45.476z" style="fill:#939393;"/></g><path d="M51.809,17.272c0,0,2.369,2.565,2.797,3.614s1.434,2.819,1.434,2.819l1.792-1.809   c0,0,1.748,0.039,2.72,0.583s3.069,2.021,4.624,4.702s3.187,5.945,3.187,5.945s2.914-3.536,3.691-5.246s2.061-4.547,2.099-6.8   s-0.001-4.196-1.827-6.372s-3.419-3.225-6.217-3.419s-5.633-0.078-7.266,0.66s-3.226,1.943-4.003,2.604s-2.798,2.409-2.798,2.409   L51.809,17.272z" style="fill:#848484;"/><g><path d="M67.335,32.788c-0.075,0-0.151-0.031-0.204-0.085c-0.092-0.092-0.108-0.234-0.042-0.346    l2.506-4.176c-1.817,1.894-3.434,3.448-3.855,3.459c-0.076-0.011-0.199-0.043-0.254-0.098c-0.107-0.107-0.111-0.28-0.009-0.393    c2.018-2.198,4.789-5.292,6.656-7.508l-5.621,5.621c-0.053,0.053-0.125,0.083-0.2,0.083l0,0c-0.075,0-0.147-0.03-0.2-0.083    c-0.615-0.616,0.692-2.451,4.934-7.652c0.749-0.919,1.553-1.905,2.144-2.672c-0.933,0.958-2.242,2.39-3.381,3.635    c-4.059,4.44-5.497,5.92-6.019,5.932c-0.002,0-0.003,0-0.004,0c-0.078,0-0.202-0.047-0.256-0.101    c-0.108-0.109-0.111-0.284-0.006-0.395c0.506-0.537,1.046-1.109,1.602-1.7c-0.06-0.002-0.119-0.023-0.17-0.063    c-0.116-0.095-0.138-0.265-0.05-0.386c2.136-2.936,4.318-6.123,5.455-8.016c-2.364,2.817-4.936,5.624-5.826,5.668    c-0.18,0.021-0.306-0.067-0.372-0.134c-0.097-0.097-0.111-0.249-0.033-0.362c2.46-3.565,5.064-7.531,5.973-9.201    c-0.365,0.351-0.85,0.846-1.392,1.414c-0.707,1.127-3.071,3.503-5.137,5.487c-2.126,2.248-2.73,2.777-3.028,2.782    c-0.013,0.004-0.055-0.004-0.087-0.013c-0.384,0.335-0.627,0.476-0.797,0.48c-0.002,0-0.004,0-0.005,0    c-0.079,0-0.207-0.049-0.261-0.103c-0.306-0.306,0.203-1.306,1.519-2.991l-0.122,0.123c-0.107,0.106-0.279,0.111-0.391,0.009    c-0.112-0.102-0.125-0.273-0.028-0.39c2.328-2.84,4.71-5.962,5.768-7.636c-0.164,0.172-0.34,0.357-0.521,0.549    c-7.407,7.807-8.973,9.238-9.388,9.244c-0.055,0.002-0.176-0.038-0.229-0.092c-0.111-0.111-0.111-0.29,0-0.401    c0.056-0.055,0.128-0.083,0.2-0.083c0.001,0,0.002,0,0.004,0c0.839-0.455,6.754-6.689,9.002-9.059    c1.606-1.692,1.606-1.692,1.743-1.694c0.097,0,0.149,0.029,0.203,0.083c0.157,0.157,0.576,0.575-3.21,5.515l5.349-5.349    c0.109-0.11,0.29-0.11,0.399-0.001c0.111,0.11,0.112,0.289,0.003,0.4c-4.43,4.523-8.973,9.584-9.746,11.092    c0.826-0.688,2.747-2.828,4.208-4.456c3.035-3.381,3.981-4.366,4.401-4.377c0.045,0.003,0.114,0.016,0.17,0.042    c1.281-1.324,1.713-1.668,1.942-1.672c0.001,0,0.003,0,0.004,0c0.077,0,0.174,0.039,0.228,0.092    c0.193,0.193,0.549,0.548-5.854,9.869c0.818-0.647,2.663-2.474,6.051-6.62c0.136-0.166,0.172-0.21,0.294-0.219    c0.081-0.008,0.164,0.023,0.222,0.083c0.165,0.165,0.562,0.563-3.669,6.647c2.664-2.834,5.455-5.667,5.981-5.679    c0.08,0.006,0.189,0.042,0.244,0.095c0.07,0.07,0.123,0.123-0.017,0.35c0.056-0.024,0.103-0.035,0.145-0.036    c0.001,0,0.003,0,0.005,0c0.076,0,0.179,0.04,0.232,0.093c0.334,0.334,0.02,0.804-3.053,4.573c-1.548,1.898-3.94,4.833-4.71,6.23    l7.463-7.462c0.053-0.053,0.125-0.083,0.2-0.083l0,0c0.075,0,0.147,0.03,0.2,0.083c0.154,0.154,0.379,0.379-2.409,3.686    c0.673-0.686,1.15-1.173,1.193-1.218c0.052-0.057,0.125-0.09,0.201-0.092c0.085,0.009,0.153,0.027,0.208,0.083    c0.082,0.082,0.13,0.13-0.031,0.353l0.042,0.038c-0.709,0.788-1.553,1.716-2.424,2.657l-2.699,4.5    c0.204-0.212,0.413-0.43,0.617-0.644c0.107-0.113,0.287-0.117,0.4-0.01c0.113,0.108,0.118,0.288,0.01,0.401    c-2.184,2.296-2.264,2.297-2.408,2.298C67.337,32.788,67.336,32.788,67.335,32.788z" style="fill:#939393;"/><path d="M55.148,22.721c-0.072,0-0.146-0.028-0.2-0.083c-0.267-0.267-0.308-0.308,4.256-6.66    c0.326-0.454,0.661-0.92,0.989-1.378c-2.031,2.25-4.331,4.614-5.043,4.644c-0.127,0.007-0.239-0.037-0.32-0.119    c-0.102-0.102-0.111-0.263-0.022-0.376l3.443-4.348c-0.623,0.647-1.265,1.32-1.841,1.924c-3.643,3.82-3.692,3.82-3.901,3.823    c-0.048,0.016-0.156-0.031-0.21-0.085c-0.139-0.139-0.147-0.147,0.686-2.576c-0.098-0.111-0.094-0.281,0.013-0.388    c0.029-0.029,0.062-0.05,0.1-0.064c0.048-0.095,0.115-0.226,0.276-0.251c0.087-0.016,0.192,0.019,0.256,0.084    c0.077,0.076,0.104,0.19,0.068,0.292c-0.181,0.524-0.421,1.231-0.611,1.798c0.72-0.722,1.863-1.922,2.914-3.023    c4.256-4.462,4.791-4.949,5.075-4.953c0.107,0.004,0.163,0.034,0.217,0.088c0.102,0.102,0.111,0.264,0.022,0.376l-5.109,6.453    c1.498-1.36,4.177-4.291,6.581-7.128c0.051-0.061,0.125-0.097,0.204-0.1c0.072-0.002,0.156,0.026,0.212,0.083    c0.255,0.255,0.265,0.265-3.537,5.557c-0.963,1.34-2.122,2.954-2.986,4.198l8.977-8.977c0.109-0.11,0.289-0.11,0.4,0    c0.041,0.042,0.082,0.082,0.081,0.163c0.976-1.048,1.271-1.276,1.474-1.282c0.109-0.001,0.178,0.036,0.232,0.091    c0.111,0.111,0.111,0.291,0,0.401c-0.052,0.051-0.118,0.079-0.186,0.083c-0.388,0.257-2.023,2.091-3.473,3.715    c-4.105,4.603-6.06,6.66-6.79,6.681c-0.146,0.027-0.232-0.039-0.312-0.118c-0.079-0.079-0.102-0.192-0.068-0.291l-1.665,1.665    C55.294,22.693,55.221,22.721,55.148,22.721z" style="fill:#939393;"/></g></g></svg>